<svg width="40" height="24" viewBox="0 0 40 24" fill="none" xmlns="http://www.w3.org/2000/svg">
<rect width="40" height="24" rx="4" fill="#72CD7D"/>
<path d="M33.9587 22H5.80614C5.80614 20 4.22259 18.3636 2.28711 18.3636V5.63633C4.22259 5.63633 5.80614 4 5.80614 2H33.9587C33.9587 4 35.5422 5.63633 37.4777 5.63633V18.3636C35.5422 18.3636 33.9587 20 33.9587 22Z" fill="#3BB54A"/>
<path d="M19.8821 18.3636C23.2226 18.3636 25.9305 15.8452 25.9305 12.7386C25.9305 9.63202 23.2226 7.11362 19.8821 7.11362C16.5417 7.11362 13.8337 9.63202 13.8337 12.7386C13.8337 15.8452 16.5417 18.3636 19.8821 18.3636Z" fill="#0E9347"/>
<path d="M9.32474 13.8182C10.2965 13.8182 11.0843 13.0041 11.0843 12C11.0843 10.9958 10.2965 10.1818 9.32474 10.1818C8.35296 10.1818 7.56519 10.9958 7.56519 12C7.56519 13.0041 8.35296 13.8182 9.32474 13.8182Z" fill="#0E9347"/>
<path d="M30.4392 13.8182C31.411 13.8182 32.1988 13.0041 32.1988 12C32.1988 10.9958 31.411 10.1818 30.4392 10.1818C29.4675 10.1818 28.6797 10.9958 28.6797 12C28.6797 13.0041 29.4675 13.8182 30.4392 13.8182Z" fill="#0E9347"/>
</svg>
