<svg width="42" height="26" viewBox="0 0 42 26" fill="none" xmlns="http://www.w3.org/2000/svg">
<rect x="1" y="1" width="40" height="24" rx="4" fill="#F7F7F7" stroke="#DEE3E7"/>
<path d="M14 9.4375V7.50781C14 7.22733 14.2273 7 14.5078 7H16.4375C16.718 7 16.9453 7.22733 16.9453 7.50781C16.9453 7.7883 16.718 8.01562 16.4375 8.01562H15.0156V9.4375C15.0156 9.71799 14.7883 9.94531 14.5078 9.94531C14.2273 9.94531 14 9.71799 14 9.4375ZM26.4922 7H24.5625C24.282 7 24.0547 7.22733 24.0547 7.50781C24.0547 7.7883 24.282 8.01562 24.5625 8.01562H25.9844V9.4375C25.9844 9.71799 26.2117 9.94531 26.4922 9.94531C26.7727 9.94531 27 9.71799 27 9.4375V7.50781C27 7.22733 26.7727 7 26.4922 7ZM16.4375 18.9844H15.0156V17.5625C15.0156 17.282 14.7883 17.0547 14.5078 17.0547C14.2273 17.0547 14 17.282 14 17.5625V19.4922C14 19.7727 14.2273 20 14.5078 20H16.4375C16.718 20 16.9453 19.7727 16.9453 19.4922C16.9453 19.2117 16.718 18.9844 16.4375 18.9844ZM26.4922 17.0547C26.2117 17.0547 25.9844 17.282 25.9844 17.5625V18.9844H24.5625C24.282 18.9844 24.0547 19.2117 24.0547 19.4922C24.0547 19.7727 24.282 20 24.5625 20H26.4922C26.7727 20 27 19.7727 27 19.4922V17.5625C27 17.282 26.7727 17.0547 26.4922 17.0547ZM20.0557 9.50098V12.5479C20.0557 12.8283 19.8283 13.0557 19.5479 13.0557H16.501C16.2205 13.0557 15.9932 12.8283 15.9932 12.5479V9.50098C15.9932 9.22049 16.2205 8.99316 16.501 8.99316H19.5479C19.8283 8.99316 20.0557 9.22049 20.0557 9.50098ZM19.04 10.0088H17.0088V12.04H19.04V10.0088ZM24.7529 13.0557H21.7061C21.4256 13.0557 21.1982 12.8283 21.1982 12.5479V9.50098C21.1982 9.22049 21.4256 8.99316 21.7061 8.99316H24.7529C25.0334 8.99316 25.2607 9.22049 25.2607 9.50098V12.5479C25.2607 12.8283 25.0334 13.0557 24.7529 13.0557ZM24.2451 10.0088H22.2139V12.04H24.2451V10.0088ZM20.0557 14.7061V17.7529C20.0557 18.0334 19.8283 18.2607 19.5479 18.2607H16.501C16.2205 18.2607 15.9932 18.0334 15.9932 17.7529V14.7061C15.9932 14.4256 16.2205 14.1982 16.501 14.1982H19.5479C19.8283 14.1982 20.0557 14.4256 20.0557 14.7061ZM19.04 15.2139H17.0088V17.2451H19.04V15.2139ZM24.0991 17.6069H22.3599C22.0794 17.6069 21.8521 17.3796 21.8521 17.0991V15.3599C21.8521 15.0794 22.0794 14.8521 22.3599 14.8521H24.0991C24.3796 14.8521 24.6069 15.0794 24.6069 15.3599V17.0991C24.6069 17.3796 24.3796 17.6069 24.0991 17.6069ZM23.5913 15.8677H22.8677V16.5913H23.5913V15.8677Z" fill="#7E8794"/>
</svg>
