<svg width="42" height="26" viewBox="0 0 42 26" fill="none" xmlns="http://www.w3.org/2000/svg">
<rect x="1" y="1" width="40" height="24" rx="4" fill="#F7F7F7" stroke="#DEE3E7"/>
<path d="M18.3392 13C18.3392 17.4192 21.8194 20.9999 26.114 20.9999C30.4085 20.9999 33.8887 17.4184 33.8887 13C33.8887 8.58154 30.4076 5 26.114 5C21.8203 5 18.3392 8.58154 18.3392 13Z" fill="#E2574C"/>
<path d="M16.7768 5C18.5205 5 20.1257 5.59761 21.4228 6.59524L21.4166 6.59602C21.1615 6.8496 20.88 7.02807 20.663 7.31998L22.2807 7.34639C22.5342 7.60962 22.7652 7.89601 22.9829 8.19363H20.1303C19.9133 8.46159 19.7127 8.69446 19.5307 8.99041H23.5001C23.6455 9.24802 23.78 9.51283 23.8975 9.78799H19.0788C18.9528 10.0624 18.8401 10.2696 18.7444 10.56H24.1829C24.2692 10.8361 24.3431 11.1184 24.3991 11.4064H18.5165C18.459 11.6832 18.4147 11.9392 18.3843 12.2H24.5158C24.5415 12.4632 24.5547 12.7304 24.5547 13H18.34C18.34 13.2833 18.3595 13.5456 18.3875 13.8001H24.5158C24.4894 14.0713 24.4505 14.3377 24.3991 14.6001H18.5259C18.5866 14.8593 18.6566 15.1201 18.7444 15.3905H24.2008C24.1184 15.6641 24.018 15.9297 23.9084 16.1888H19.0788C19.2125 16.4801 19.3642 16.7128 19.5314 16.9856H23.514C23.3569 17.2656 23.1835 17.5328 22.9953 17.7888L20.1303 17.8328C20.3745 18.1344 20.6878 18.316 20.9733 18.58C20.9578 18.5928 21.4298 18.5784 22.3592 18.5632C20.9454 20.0641 18.9692 21 16.7769 21C12.4816 21 8.99988 17.4184 8.99988 13C8.99988 8.58171 12.4808 5 16.7768 5Z" fill="#F4B459"/>
</svg>
