<svg width="42" height="26" viewBox="0 0 42 26" fill="none" xmlns="http://www.w3.org/2000/svg">
<rect x="1" y="1" width="40" height="24" rx="4" fill="#F7F7F7" stroke="#DEE3E7"/>
<path fill-rule="evenodd" clip-rule="evenodd" d="M17.333 17L18.3593 9H19.9997L18.9735 17H17.333Z" fill="#26337A"/>
<path fill-rule="evenodd" clip-rule="evenodd" d="M26.6667 9.32517C26.2274 9.16962 25.5365 9 24.6758 9C22.4792 9 20.933 10.0517 20.9201 11.5577C20.9062 12.6717 22.0235 13.293 22.8659 13.6633C23.7316 14.0428 24.0225 14.2857 24.0191 14.625C24.0131 15.1441 23.3281 15.3819 22.6893 15.3819C21.7997 15.3819 21.3272 15.2649 20.5965 14.9755L20.3107 14.8521L20 16.5869C20.5181 16.8028 21.4785 16.9902 22.4753 17C24.8097 17 26.3266 15.961 26.3444 14.3528C26.3524 13.4694 25.7604 12.7998 24.4782 12.247C23.7018 11.8876 23.2253 11.6495 23.2307 11.2858C23.2312 10.9637 23.6333 10.6189 24.5035 10.6189C25.2302 10.6083 25.7563 10.7592 26.1662 10.9167L26.3658 11.0053L26.6667 9.32517Z" fill="#26337A"/>
<path fill-rule="evenodd" clip-rule="evenodd" d="M29.3337 14.3333C29.4668 13.9245 29.9735 12.3452 29.9735 12.3452C29.9641 12.364 30.1058 11.9333 30.1869 11.6667L30.2953 12.2801C30.2953 12.2801 30.6035 13.9778 30.667 14.3333C30.417 14.3333 29.6473 14.3333 29.3337 14.3333ZM31.8313 9H30.3967C29.9518 9 29.6187 9.14163 29.4238 9.66359L26.667 17H28.6167C28.6167 17 28.9348 16.0131 29.007 15.7965C29.2197 15.7965 31.1142 15.8006 31.3847 15.8006C31.4403 16.08 31.6107 17 31.6107 17H33.3337L31.8313 9Z" fill="#26337A"/>
<path fill-rule="evenodd" clip-rule="evenodd" d="M15.3315 9L13.4823 14.4634L13.2842 13.3529C12.9396 12.0733 11.8669 10.6863 10.667 9.9914L12.3588 17L14.3583 16.9987L17.3337 9H15.3315Z" fill="#26337A"/>
<path fill-rule="evenodd" clip-rule="evenodd" d="M11.569 9H8.02913L8 9.15239C10.7544 9.76164 12.5769 11.2322 13.3333 13L12.5641 9.62054C12.4314 9.15446 12.0457 9.01629 11.569 9Z" fill="#EC982D"/>
</svg>
