<svg width="40" height="40" viewBox="0 0 40 40" fill="none" xmlns="http://www.w3.org/2000/svg">
<path d="M15.0098 19.9999C15.0098 26.9043 20.603 32.4987 27.5049 32.4987C34.4068 32.4987 40 26.9031 40 19.9999C40 13.0967 34.4054 7.5011 27.5049 7.5011C20.6043 7.5011 15.0098 13.0967 15.0098 19.9999Z" fill="#E2574C"/>
<path d="M12.4988 7.5011C15.3011 7.5011 17.8809 8.43478 19.9657 9.99343L19.9557 9.99466C19.5457 10.3908 19.0933 10.6697 18.7445 11.1257L21.3444 11.167C21.7518 11.5783 22.123 12.0257 22.473 12.4907H17.8885C17.5397 12.9094 17.2173 13.2732 16.9248 13.7356H23.3041C23.5378 14.138 23.754 14.5518 23.9428 14.9817H16.1985C15.996 15.4103 15.8148 15.7341 15.661 16.1879H24.4015C24.5402 16.6191 24.6589 17.0603 24.749 17.5102H15.2948C15.2023 17.9427 15.1311 18.3426 15.0823 18.7501H24.9365C24.9778 19.1614 24.999 19.5788 24.999 20H15.0112C15.0112 20.4426 15.0424 20.8524 15.0874 21.25H24.9365C24.894 21.6737 24.8315 22.0899 24.749 22.4999H15.3099C15.4074 22.9049 15.5199 23.3123 15.6611 23.7348H24.4303C24.2978 24.1622 24.1365 24.5772 23.9603 24.9821H16.1985C16.4134 25.4371 16.6572 25.8008 16.9258 26.227H23.3265C23.0739 26.6644 22.7953 27.0818 22.4928 27.4818L17.8883 27.5505C18.2808 28.0217 18.7844 28.3054 19.2433 28.7179C19.2183 28.7379 19.9769 28.7155 21.4706 28.6917C19.1983 31.0366 16.0223 32.4989 12.499 32.4989C5.59582 32.4989 0.000173569 26.9031 0.000173569 20C0.000173569 13.097 5.59459 7.5011 12.4988 7.5011Z" fill="#F4B459"/>
</svg>
