<svg width="16" height="11" viewBox="0 0 16 11" fill="none" xmlns="http://www.w3.org/2000/svg">
<path fill-rule="evenodd" clip-rule="evenodd" d="M0.208252 7.46849C0.208252 7.29615 0.342782 7.15645 0.508733 7.15645C1.33849 7.15645 2.01114 6.45794 2.01114 5.59628C2.01114 4.73462 1.33849 4.0361 0.508733 4.0361C0.342782 4.0361 0.208252 3.8964 0.208252 3.72407V0.603722C0.208252 0.43139 0.342782 0.291687 0.508733 0.291687H15.5328C15.6987 0.291687 15.8333 0.43139 15.8333 0.603722V3.72407C15.8333 3.8964 15.6987 4.0361 15.5328 4.0361C14.703 4.0361 14.0304 4.73462 14.0304 5.59628C14.0304 6.45794 14.703 7.15645 15.5328 7.15645C15.6987 7.15645 15.8333 7.29615 15.8333 7.46849V10.5888C15.8333 10.7612 15.6987 10.9009 15.5328 10.9009H0.508733C0.342782 10.9009 0.208252 10.7612 0.208252 10.5888V7.46849ZM11.927 2.1639C12.093 2.1639 12.2275 2.0242 12.2275 1.85187C12.2275 1.67954 12.093 1.53983 11.927 1.53983C11.7611 1.53983 11.6265 1.67954 11.6265 1.85187C11.6265 2.0242 11.7611 2.1639 11.927 2.1639ZM12.2275 3.10001C12.2275 3.27235 12.093 3.41205 11.927 3.41205C11.7611 3.41205 11.6265 3.27235 11.6265 3.10001C11.6265 2.92768 11.7611 2.78798 11.927 2.78798C12.093 2.78798 12.2275 2.92768 12.2275 3.10001ZM11.927 4.66019C12.093 4.66019 12.2275 4.52049 12.2275 4.34816C12.2275 4.17583 12.093 4.03612 11.927 4.03612C11.7611 4.03612 11.6265 4.17583 11.6265 4.34816C11.6265 4.52049 11.7611 4.66019 11.927 4.66019ZM12.2275 5.5963C12.2275 5.76864 12.093 5.90834 11.927 5.90834C11.7611 5.90834 11.6265 5.76864 11.6265 5.5963C11.6265 5.42397 11.7611 5.28427 11.927 5.28427C12.093 5.28427 12.2275 5.42397 12.2275 5.5963ZM11.927 7.15644C12.093 7.15644 12.2275 7.01673 12.2275 6.8444C12.2275 6.67207 12.093 6.53237 11.927 6.53237C11.7611 6.53237 11.6265 6.67207 11.6265 6.8444C11.6265 7.01673 11.7611 7.15644 11.927 7.15644ZM12.2275 8.09255C12.2275 8.26488 12.093 8.40458 11.927 8.40458C11.7611 8.40458 11.6265 8.26488 11.6265 8.09255C11.6265 7.92022 11.7611 7.78051 11.927 7.78051C12.093 7.78051 12.2275 7.92022 12.2275 8.09255ZM11.927 9.65273C12.093 9.65273 12.2275 9.51303 12.2275 9.3407C12.2275 9.16836 12.093 9.02866 11.927 9.02866C11.7611 9.02866 11.6265 9.16836 11.6265 9.3407C11.6265 9.51303 11.7611 9.65273 11.927 9.65273ZM5.6169 2.1639C6.2807 2.1639 6.81882 2.72272 6.81882 3.41204C6.81882 4.10137 6.2807 4.66018 5.6169 4.66018C4.95309 4.66018 4.41498 4.10137 4.41498 3.41204C4.41498 2.72272 4.95309 2.1639 5.6169 2.1639ZM4.48083 8.52172C4.37716 8.65629 4.39817 8.85265 4.52776 8.96031C4.65734 9.06796 4.84643 9.04614 4.9501 8.91157L9.7578 2.67088C9.86146 2.53631 9.84045 2.33995 9.71087 2.23229C9.58128 2.12464 9.39219 2.14646 9.28852 2.28102L4.48083 8.52172ZM8.62173 6.53237C9.28553 6.53237 9.82365 7.09118 9.82365 7.78051C9.82365 8.46984 9.28553 9.02865 8.62173 9.02865C7.95792 9.02865 7.4198 8.46984 7.4198 7.78051C7.4198 7.09118 7.95792 6.53237 8.62173 6.53237Z" fill="#2D81FF"/>
</svg>
