<svg width="24" height="24" viewBox="0 0 24 24" fill="none" xmlns="http://www.w3.org/2000/svg">
<circle cx="12" cy="12" r="5" fill="#284D84"/>
<path d="M23.763 15.156L21.1607 13.17C21.21 12.786 21.247 12.396 21.247 12C21.247 11.604 21.21 11.214 21.1607 10.83L23.7692 8.84398C24.0035 8.66398 24.0714 8.33998 23.9172 8.07599L21.4505 3.91799C21.2963 3.65997 20.9757 3.55197 20.6982 3.65997L17.6271 4.86597C16.992 4.39195 16.2951 3.98999 15.5428 3.68399L15.0803 0.504001C15.0248 0.222019 14.7719 0 14.4636 0H9.53025C9.22194 0 8.96906 0.222019 8.91975 0.504001L8.45724 3.68399C7.70492 3.98999 7.00804 4.38599 6.37291 4.86597L3.30188 3.65997C3.02438 3.55799 2.70369 3.65997 2.54956 3.91799L0.0827888 8.07599C-0.0713986 8.33401 -0.00352605 8.65801 0.23079 8.84398L2.83313 10.83C2.78382 11.214 2.74682 11.604 2.74682 12C2.74682 12.396 2.78382 12.786 2.83313 13.17L0.23079 15.156C-0.00352605 15.336 -0.0713986 15.66 0.0827888 15.924L2.5495 20.082C2.70369 20.34 3.02432 20.448 3.30182 20.34L6.37285 19.134C7.00804 19.6081 7.70486 20.01 8.45718 20.316L8.91969 23.496C8.969 23.778 9.22188 24 9.5302 24H14.4636C14.7719 24 15.0248 23.778 15.0741 23.496L15.5366 20.316C16.2889 20.01 16.9858 19.614 17.6209 19.134L20.6919 20.34C20.9694 20.442 21.2901 20.34 21.4443 20.082L23.911 15.924C24.0652 15.666 23.9973 15.342 23.763 15.156ZM11.9969 16.2C9.61038 16.2 7.68018 14.322 7.68018 12C7.68018 9.678 9.61038 7.80003 11.9969 7.80003C14.3834 7.80003 16.3136 9.67805 16.3136 12.0001C16.3136 14.3221 14.3834 16.2 11.9969 16.2Z" fill="#1A72F6"/>
</svg>
