<svg width="32" height="32" viewBox="0 0 32 32" fill="none" xmlns="http://www.w3.org/2000/svg">
<circle cx="16" cy="16" r="16" fill="#ECEEF7"/>
<g clip-path="url(#clip0)">
<path d="M19 17.6667C18.6313 17.6667 18.3333 17.9653 18.3333 18.3333V21C18.3333 21.3673 18.0347 21.6667 17.6667 21.6667H15.6667V11.6667C15.6667 11.0973 15.304 10.5887 14.7587 10.3993L14.5613 10.3333H17.6667C18.0347 10.3333 18.3333 10.6327 18.3333 11V13C18.3333 13.368 18.6313 13.6667 19 13.6667C19.3687 13.6667 19.6667 13.368 19.6667 13V11C19.6667 9.89733 18.7693 9 17.6667 9H10.5C10.4747 9 10.4533 9.01133 10.4287 9.01467C10.3967 9.012 10.366 9 10.3333 9C9.598 9 9 9.598 9 10.3333V22.3333C9 22.9027 9.36267 23.4113 9.908 23.6007L13.92 24.938C14.056 24.98 14.1913 25 14.3333 25C15.0687 25 15.6667 24.402 15.6667 23.6667V23H17.6667C18.7693 23 19.6667 22.1027 19.6667 21V18.3333C19.6667 17.9653 19.3687 17.6667 19 17.6667Z" fill="#284D84"/>
<path d="M24.805 15.1953L22.1383 12.5287C21.9477 12.338 21.661 12.2807 21.4117 12.384C21.163 12.4873 21.0003 12.7307 21.0003 13V15H18.3337C17.9657 15 17.667 15.2987 17.667 15.6667C17.667 16.0347 17.9657 16.3333 18.3337 16.3333H21.0003V18.3333C21.0003 18.6027 21.163 18.846 21.4117 18.9493C21.661 19.0526 21.9477 18.9953 22.1383 18.8047L24.805 16.138C25.0657 15.8773 25.0657 15.456 24.805 15.1953Z" fill="#284D84"/>
</g>
<defs>
<clipPath id="clip0">
<rect width="16" height="16" fill="white" transform="translate(9 9)"/>
</clipPath>
</defs>
</svg>
