<svg width="48" height="48" viewBox="0 0 48 48" fill="none" xmlns="http://www.w3.org/2000/svg">
<circle cx="24" cy="24" r="24" fill="#2D81FF"/>
<path d="M33.9994 28.9738V31.9846C34.0005 32.2642 33.9431 32.5408 33.831 32.7969C33.7188 33.053 33.5542 33.2829 33.3478 33.4719C33.1415 33.6608 32.8978 33.8047 32.6325 33.8942C32.3672 33.9838 32.0861 34.017 31.8072 33.9919C28.7128 33.6563 25.7404 32.601 23.1289 30.9108C20.6992 29.3699 18.6393 27.3141 17.0953 24.8892C15.3959 22.271 14.3382 19.2901 14.0082 16.1879C13.983 15.9104 14.0161 15.6307 14.1052 15.3666C14.1943 15.1025 14.3376 14.8599 14.5258 14.6541C14.7141 14.4483 14.9432 14.2838 15.1986 14.1712C15.454 14.0586 15.7301 14.0004 16.0093 14.0001H19.0261C19.5141 13.9953 19.9872 14.1678 20.3572 14.4854C20.7273 14.803 20.969 15.244 21.0373 15.7263C21.1646 16.6898 21.4007 17.6359 21.7412 18.5464C21.8765 18.9056 21.9058 19.296 21.8256 19.6713C21.7454 20.0466 21.559 20.3911 21.2887 20.664L20.0116 21.9386C21.4431 24.4512 23.5276 26.5315 26.0451 27.9602L27.3222 26.6856C27.5956 26.4158 27.9408 26.2298 28.3169 26.1498C28.6929 26.0698 29.0841 26.099 29.444 26.234C30.3564 26.5738 31.3043 26.8095 32.2698 26.9365C32.7582 27.0053 33.2044 27.2509 33.5233 27.6265C33.8422 28.0021 34.0116 28.4817 33.9994 28.9738Z" fill="white"/>
</svg>
