<svg width="13" height="12" viewBox="0 0 13 12" fill="none" xmlns="http://www.w3.org/2000/svg">
<path d="M6.13465 0.819623C6.2756 0.503428 6.7244 0.503428 6.86535 0.819623L8.20175 3.81773C8.25989 3.94814 8.38312 4.03768 8.52512 4.05267L11.7895 4.3972C12.1337 4.43354 12.2724 4.86038 12.0153 5.09213L9.57686 7.2896C9.47079 7.38518 9.42372 7.53006 9.45335 7.66973L10.1344 10.8808C10.2062 11.2194 9.84315 11.4832 9.54327 11.3103L6.69985 9.67027C6.57617 9.59893 6.42383 9.59893 6.30015 9.67027L3.45673 11.3103C3.15685 11.4832 2.79376 11.2194 2.86559 10.8808L3.54665 7.66973C3.57628 7.53006 3.52921 7.38518 3.42314 7.2896L0.984742 5.09213C0.727577 4.86038 0.866266 4.43354 1.21054 4.3972L4.47488 4.05267C4.61688 4.03768 4.74011 3.94814 4.79825 3.81773L6.13465 0.819623Z" fill="#FFC921"/>
</svg>
