<svg width="40" height="40" viewBox="0 0 40 40" fill="none" xmlns="http://www.w3.org/2000/svg">
<g clip-path="url(#clip0)">
<path d="M20 0C8.95276 0 0 8.95276 0 20C0 25.9606 2.6063 31.315 6.74803 34.9842C10.2835 38.1024 14.9213 40 20 40C25.0866 40 29.7244 38.1024 33.252 34.9764C37.3937 31.315 40 25.9606 40 20C40 8.95276 31.0472 0 20 0Z" fill="#ECEEF7"/>
<path d="M31.6851 33.3543C30.6615 32.5906 28.8032 31.3228 26.7796 30.3858C24.756 29.4567 23.567 27.2756 23.8898 25.0787C23.8898 25.0472 23.8977 25.0158 23.9056 24.9764C23.9056 24.9764 28.5119 21.8583 27.8741 18.8189C27.8741 18.8189 28.0158 18.8268 28.2284 18.811C30.2599 18.6221 30.3859 15.5984 28.378 15.2756C28.3623 15.2756 28.3387 15.2677 28.3229 15.2677L28.2599 14.937C28.8741 12.7874 30.3702 6.27559 25.8426 6.90552C25.8426 6.90552 22.5906 1.52756 15.7166 4.11811C8.83472 6.70079 10.63 12.8661 10.63 12.8661L11.4804 15.3228C9.63 15.7795 9.80323 18.6378 11.7717 18.8189C11.9843 18.8347 12.1339 18.8268 12.1339 18.8268C11.4883 21.8661 16.0946 24.9843 16.0946 24.9843C16.1024 25.0236 16.1024 25.0551 16.1103 25.0866C16.4253 27.2835 15.2363 29.4646 13.2205 30.3937C11.1891 31.3307 9.33866 32.6063 8.31504 33.3622C7.70086 33.811 7.15756 34.3543 6.74023 34.9921C10.2835 38.1024 14.9213 40 20.0001 40C25.0867 40 29.7245 38.1024 33.252 34.9764C32.8426 34.3465 32.2993 33.8032 31.6851 33.3543Z" fill="#284D84"/>
</g>
<defs>
<clipPath id="clip0">
<rect width="40" height="40" fill="white"/>
</clipPath>
</defs>
</svg>
