<svg width="72" height="72" viewBox="0 0 72 72" fill="none" xmlns="http://www.w3.org/2000/svg">
<rect width="72" height="72" rx="16" fill="url(#paint0_radial)"/>
<path d="M47 28.4999C36.126 24.0698 36.5322 24.1553 36.5244 24.1521C36.1888 24.0184 35.8158 24.0156 35.4707 24.1541L25 28.4999C24.7315 28.6076 24 28.9999 24 28.9999C24 28.9999 24.0001 29.4828 24.0001 29.7719V31.5933C24.0001 31.9667 24 32.9999 24 32.9999C24 32.9999 25.0081 32.9999 25.4118 32.9999H46.5882C46.9956 32.9999 47.9999 32.9999 47.9999 32.9999C47.9999 32.9999 47.9999 31.9629 47.9999 31.5933V29.7719C47.9999 29.49 48 28.9999 48 28.9999C48 28.9999 47.2752 28.6103 47 28.4999ZM36.7059 29.2957C36.7059 29.6841 36.3898 29.999 36 29.999C35.6101 29.999 35.2941 29.6841 35.2941 29.2957V27.7953C35.2941 27.4068 35.6101 27.0919 36 27.0919C36.3898 27.0919 36.7059 27.4068 36.7059 27.7953V29.2957Z" fill="#1A72F6"/>
<path d="M26.1255 32.8234H45.6076V43.7645H26.1255V32.8234Z" fill="#1A72F6"/>
<rect x="30.3389" y="42.373" width="8.26789" height="1.44884" rx="0.72442" transform="rotate(-90 30.3389 42.373)" fill="#C8DEFF"/>
<rect x="35.4097" y="42.373" width="8.26789" height="1.44884" rx="0.72442" transform="rotate(-90 35.4097 42.373)" fill="#C8DEFF"/>
<rect x="35" y="29.9999" width="3" height="2" rx="1" transform="rotate(-90 35 29.9999)" fill="#284D84"/>
<rect x="40.4805" y="42.373" width="8.26789" height="1.44884" rx="0.72442" transform="rotate(-90 40.4805 42.373)" fill="#C8DEFF"/>
<path d="M24 42.9999H48V47.9999H24V42.9999Z" fill="#284D84"/>
<defs>
<radialGradient id="paint0_radial" cx="0" cy="0" r="1" gradientUnits="userSpaceOnUse" gradientTransform="translate(36 36) rotate(90) scale(36)">
<stop stop-color="#ECEEF7"/>
<stop offset="1" stop-color="#ECEEF7"/>
</radialGradient>
</defs>
</svg>
