<svg width="72" height="72" viewBox="0 0 72 72" fill="none" xmlns="http://www.w3.org/2000/svg">
<rect width="72" height="72" rx="16" fill="#ECEEF7"/>
<g clip-path="url(#clip0)">
<path fill-rule="evenodd" clip-rule="evenodd" d="M46.7784 48.9249L46.4105 43.1591C46.3348 38.5551 41.9448 37.7451 38.6982 36.6729C36.4044 37.3826 36.6948 37.0394 33.3245 36.6729C30.0779 37.7451 25.6652 38.5551 25.5894 43.1591L25.0989 49.279C25.2723 49.1694 25.9661 48.3728 26.1853 48.3728H27.9372C29.2425 48.3728 38.3753 48.3728 44.0626 48.3728H45.8145C46.0339 48.3728 46.605 49.4764 46.7784 49.5861V48.9249Z" fill="#284D84"/>
<path fill-rule="evenodd" clip-rule="evenodd" d="M38.2093 36.0156V34.3294C37.5592 34.6504 36.8033 34.8354 36.001 34.8354C35.197 34.8354 34.4428 34.6504 33.791 34.3294V36.0156L36.0001 37.6624L38.2093 36.0156Z" fill="#A4C6F9"/>
<path d="M35.0757 37.967L35.4357 39.0472H36.6959L37.056 37.967L36.0658 37.472L35.0757 37.967Z" fill="#96C0FF"/>
<path d="M35.4359 39.0472L35.1208 41.8826H37.0111L36.6961 39.0472H35.4359Z" fill="#589BFF"/>
<path d="M38.1705 35.9959L36.1191 37.4719L37.2565 38.6072L39.383 36.3968L38.1705 35.9959Z" fill="#B9D5FF"/>
<path d="M33.8296 36.0645L36.081 37.4887L34.7436 38.6758L32.6171 36.4654L33.8296 36.0645Z" fill="#B9D5FF"/>
<path d="M39.5963 42.5796L42.5774 44.095L39.5717 45.6354L39.5709 45.6357L35.9384 47.5052L32.306 45.6357L32.3052 45.6354L29.2995 44.095L32.2806 42.5796L35.9384 41.1755L39.5963 42.5796Z" fill="#B9D5FF" stroke="#B9D5FF"/>
<path d="M40.769 47.3889V45.5955L38.8303 46.5811V48.3744L39.8966 47.0657L40.769 47.3889Z" fill="#135FD0"/>
<path d="M35.9385 48.0674V56L43.6772 52.0418V44.093L40.7691 45.5955L40.7045 45.6278V47.3727L39.8967 47.0657L38.8304 48.3744V46.581L35.9385 48.0674Z" fill="#1A72F6"/>
<path d="M35.9384 56V48.0674L32.0772 46.0802L28.1997 44.093V52.0418L35.9384 56Z" fill="#1A72F6"/>
<path d="M35.9385 55.8429L35.9385 48.0674" stroke="#B9D5FF" stroke-width="0.3" stroke-linecap="round"/>
<path d="M28.1997 51.9552L28.1997 44.2441" stroke="#B9D5FF" stroke-width="0.3" stroke-linecap="round"/>
<path d="M43.5615 51.9998L43.5615 44.2068" stroke="#B9D5FF" stroke-width="0.3" stroke-linecap="round"/>
<path d="M31.1082 42.6067L38.8307 46.5811L40.7048 45.6279L40.7695 45.5956L33.1702 41.7016L32.0775 42.1221L31.1082 42.6067Z" fill="#9DBFF1"/>
<path fill-rule="evenodd" clip-rule="evenodd" d="M45.8147 51.5892C46.4345 51.5892 46.9408 51.083 46.9408 50.4632V48.4622C46.9408 48.0596 46.7295 47.7068 46.4106 47.5075C46.2372 47.3978 46.034 47.336 45.8147 47.336H44.0628C43.712 47.336 43.3792 47.4217 43.0882 47.5732C42.4046 47.93 41.9363 48.6435 41.9363 49.4626C41.9363 50.2818 42.4046 50.9953 43.0882 51.3501C43.3792 51.5036 43.712 51.5892 44.0628 51.5892H45.8147Z" fill="#B9D5FF"/>
<path d="M41.5612 27.9489L41.7425 27.2281C41.9333 26.4697 41.9387 25.6765 41.7582 24.9155C41.5777 24.1546 41.2166 23.4483 40.7056 22.8564C40.1867 22.163 39.4773 21.6358 38.6638 21.3389C37.8503 21.0421 36.968 20.9886 36.1246 21.1848C35.8433 21.2503 35.5632 21.3155 35.2958 21.3776C34.7184 21.5117 34.1777 21.7715 33.7122 22.1385C33.2467 22.5055 32.8679 22.9707 32.6028 23.5009H32.4902C32.1302 23.501 31.7752 23.5848 31.4532 23.7458C31.1313 23.9068 30.8512 24.1405 30.6352 24.4285C30.2662 24.9205 30.1077 25.5389 30.1947 26.1478L30.4828 28.165L30.6372 29.437H41.0882L41.4372 28.3766C41.4836 28.2355 41.525 28.093 41.5612 27.9489Z" fill="#1A72F6"/>
<path d="M36.0001 35.0063C35.2491 35.0062 34.5153 34.805 33.8934 34.4285C33.2716 34.052 32.7901 33.5175 32.5112 32.894C32.0149 31.7846 31.76 30.6007 31.76 29.4059V26.6647L33.032 24.7343C33.7033 25.3456 34.5041 25.8311 35.3876 26.1625C36.2711 26.494 37.2196 26.6647 38.1777 26.6647H40.2401V29.4059C40.2401 30.6008 39.9852 31.7847 39.4889 32.8942C39.21 33.5177 38.7285 34.0521 38.1066 34.4286C37.4848 34.805 36.751 35.0063 36.0001 35.0063Z" fill="#B9D5FF"/>
<path d="M31.76 28.1649H31.174C30.8796 28.1649 30.5973 28.2819 30.3891 28.4901C30.1809 28.6982 30.064 28.9806 30.064 29.275V30.0229C30.064 30.1953 30.1041 30.3652 30.1811 30.5193C30.2733 30.7037 30.4151 30.8588 30.5904 30.9672C30.7658 31.0756 30.9679 31.133 31.174 31.133H31.919L31.76 28.1649Z" fill="#B9D5FF"/>
<path d="M40.2401 28.165H40.826C41.1204 28.165 41.4028 28.2819 41.6109 28.4901C41.8191 28.6983 41.9361 28.9806 41.9361 29.275V30.023C41.9361 30.1953 41.896 30.3652 41.8189 30.5194C41.7267 30.7037 41.585 30.8588 41.4096 30.9672C41.2343 31.0756 41.0322 31.133 40.826 31.133H40.0811L40.2401 28.165Z" fill="#B9D5FF"/>
<path fill-rule="evenodd" clip-rule="evenodd" d="M28.9138 51.3521C29.5954 50.9953 30.0637 50.2818 30.0637 49.4626C30.0637 48.6435 29.5954 47.93 28.9138 47.5732C28.6208 47.4217 28.288 47.336 27.9372 47.336H26.1854C25.9661 47.336 25.7629 47.3978 25.5895 47.5075C25.2726 47.7068 25.0593 48.0596 25.0593 48.4622V50.4632C25.0593 51.0831 25.5656 51.5892 26.1854 51.5892H27.9372C28.2879 51.5892 28.6208 51.5035 28.9138 51.3521Z" fill="#B9D5FF"/>
</g>
<defs>
<clipPath id="clip0">
<rect width="36" height="36" fill="white" transform="translate(18 20)"/>
</clipPath>
</defs>
</svg>
