<svg width="72" height="72" viewBox="0 0 72 72" fill="none" xmlns="http://www.w3.org/2000/svg">
<rect width="72" height="72" rx="16" fill="#ECEEF7"/>
<path fill-rule="evenodd" clip-rule="evenodd" d="M46.7782 46.9249L46.4103 41.1591C46.3345 36.5551 41.9445 35.7451 38.6979 34.6729C36.4041 35.3826 36.6945 35.0394 33.3242 34.6729C30.0776 35.7451 25.6649 36.5551 25.5892 41.1591L25.0986 47.279C25.272 47.1694 25.9659 46.3728 26.1851 46.3728H27.9369C29.2423 46.3728 38.3751 46.3728 44.0624 46.3728H45.8142C46.0336 46.3728 46.6048 47.4764 46.7782 47.5861V46.9249Z" fill="#284D84"/>
<path d="M27.229 40.8826C27.229 40.3303 27.6767 39.8826 28.229 39.8826H43.8827C44.435 39.8826 44.8827 40.3303 44.8827 40.8826V52.0009C44.8827 52.5532 44.435 53.0009 43.8827 53.0009H28.229C27.6767 53.0009 27.229 52.5532 27.229 52.0009V40.8826Z" fill="#B9D5FF"/>
<path fill-rule="evenodd" clip-rule="evenodd" d="M28.7227 53.0009H43.2397C43.7639 53.0009 44.1943 52.5703 44.1943 52.0462C44.1943 48.1928 44.1943 45.3857 44.1943 41.5626C44.1943 41.0384 43.7638 40.6099 43.2397 40.6099H35.9812H28.7227C28.1985 40.6099 27.77 41.0404 27.77 41.5626C27.77 45.3846 27.77 48.1939 27.77 52.0462C27.77 52.5703 28.1985 53.0009 28.7227 53.0009Z" fill="#1A72F6"/>
<path d="M32.3535 42.9282H39.7583" stroke="#B9D5FF" stroke-width="0.8" stroke-miterlimit="10" stroke-linecap="round"/>
<path d="M32.3535 46.4417H37.9071" stroke="#B9D5FF" stroke-width="0.8" stroke-miterlimit="10" stroke-linecap="round"/>
<path d="M32.3535 49.9553H37.9071" stroke="#B9D5FF" stroke-width="0.8" stroke-miterlimit="10" stroke-linecap="round"/>
<path fill-rule="evenodd" clip-rule="evenodd" d="M38.2088 34.0156V32.3294C37.5587 32.6504 36.8028 32.8354 36.0005 32.8354C35.1965 32.8354 34.4423 32.6504 33.7905 32.3294V34.0156L35.9996 35.6624L38.2088 34.0156Z" fill="#A4C6F9"/>
<path d="M35.0757 35.967L35.4357 37.0472H36.6959L37.056 35.967L36.0658 35.472L35.0757 35.967Z" fill="#96C0FF"/>
<path d="M35.4357 37.0472L35.1206 39.8826H37.0109L36.6959 37.0472H35.4357Z" fill="#589BFF"/>
<path d="M38.1705 33.9959L36.1191 35.4719L37.2565 36.6072L39.383 34.3968L38.1705 33.9959Z" fill="#B9D5FF"/>
<path d="M33.8296 34.0645L36.081 35.4887L34.7436 36.6758L32.6171 34.4654L33.8296 34.0645Z" fill="#B9D5FF"/>
<path fill-rule="evenodd" clip-rule="evenodd" d="M45.8145 49.5892C46.4343 49.5892 46.9405 49.083 46.9405 48.4632V46.4622C46.9405 46.0596 46.7292 45.7068 46.4104 45.5075C46.237 45.3978 46.0337 45.336 45.8145 45.336H44.0626C43.7118 45.336 43.379 45.4217 43.088 45.5732C42.4044 45.93 41.936 46.6435 41.936 47.4626C41.936 48.2818 42.4044 48.9953 43.088 49.3501C43.3789 49.5036 43.7118 49.5892 44.0626 49.5892H45.8145Z" fill="#B9D5FF"/>
<path d="M41.5607 25.9489L41.742 25.2281C41.9328 24.4697 41.9382 23.6765 41.7577 22.9155C41.5772 22.1546 41.2161 21.4483 40.7051 20.8564C40.1862 20.163 39.4768 19.6358 38.6633 19.3389C37.8498 19.0421 36.9675 18.9886 36.1241 19.1848C35.8428 19.2503 35.5627 19.3155 35.2954 19.3776C34.7179 19.5117 34.1772 19.7715 33.7117 20.1385C33.2462 20.5055 32.8674 20.9707 32.6023 21.5009H32.4897C32.1297 21.501 31.7747 21.5848 31.4527 21.7458C31.1308 21.9068 30.8507 22.1405 30.6347 22.4285C30.2657 22.9205 30.1072 23.5389 30.1942 24.1478L30.4823 26.165L30.6367 27.437H41.0877L41.4367 26.3766C41.4831 26.2355 41.5245 26.093 41.5607 25.9489Z" fill="#1A72F6"/>
<path d="M35.9993 33.0063C35.2483 33.0062 34.5146 32.805 33.8927 32.4285C33.2708 32.052 32.7894 31.5175 32.5105 30.894C32.0142 29.7846 31.7593 28.6007 31.7593 27.4059V24.6647L33.0313 22.7343C33.7026 23.3456 34.5034 23.8311 35.3869 24.1625C36.2704 24.494 37.2189 24.6647 38.177 24.6647H40.2394V27.4059C40.2394 28.6008 39.9844 29.7847 39.4882 30.8942C39.2092 31.5177 38.7278 32.0521 38.1059 32.4286C37.484 32.805 36.7503 33.0063 35.9993 33.0063Z" fill="#B9D5FF"/>
<path d="M31.7595 26.1649H31.1735C30.8791 26.1649 30.5968 26.2819 30.3886 26.4901C30.1804 26.6982 30.0635 26.9806 30.0635 27.275V28.0229C30.0635 28.1953 30.1036 28.3652 30.1807 28.5193C30.2729 28.7037 30.4146 28.8588 30.5899 28.9672C30.7653 29.0756 30.9674 29.133 31.1735 29.133H31.9185L31.7595 26.1649Z" fill="#B9D5FF"/>
<path d="M40.2396 26.165H40.8255C41.1199 26.165 41.4023 26.2819 41.6105 26.4901C41.8186 26.6983 41.9356 26.9806 41.9356 27.275V28.023C41.9356 28.1953 41.8955 28.3652 41.8184 28.5194C41.7262 28.7037 41.5845 28.8588 41.4091 28.9672C41.2338 29.0756 41.0317 29.133 40.8255 29.133H40.0806L40.2396 26.165Z" fill="#B9D5FF"/>
<path fill-rule="evenodd" clip-rule="evenodd" d="M28.9135 49.3521C29.5951 48.9953 30.0635 48.2818 30.0635 47.4626C30.0635 46.6435 29.5951 45.93 28.9135 45.5732C28.6205 45.4217 28.2878 45.336 27.937 45.336H26.1851C25.9659 45.336 25.7626 45.3978 25.5892 45.5075C25.2723 45.7068 25.0591 46.0596 25.0591 46.4622V48.4632C25.0591 49.0831 25.5653 49.5892 26.1851 49.5892H27.937C28.2877 49.5892 28.6205 49.5035 28.9135 49.3521Z" fill="#B9D5FF"/>
</svg>
