<svg width="20" height="20" viewBox="0 0 20 20" fill="none" xmlns="http://www.w3.org/2000/svg">
<circle cx="10" cy="10" r="10" fill="#E7E8EC"/>
<path d="M9.89283 5C12.0299 5 13.7917 6.70403 13.7917 8.81231C13.7917 9.87469 13.4053 10.861 12.7694 11.697C12.0678 12.6191 11.2031 13.4225 10.2297 14.0532C10.007 14.1989 9.80594 14.2099 9.56146 14.0532C8.58259 13.4225 7.71787 12.6191 7.02231 11.697C6.38591 10.861 6 9.87469 6 8.81231C6 6.70403 7.76178 5 9.89283 5ZM9.89283 7.64771C9.18618 7.64771 8.60985 8.23024 8.60985 8.93101C8.60985 9.63728 9.18618 10.1928 9.89283 10.1928C10.5999 10.1928 11.1818 9.63728 11.1818 8.93101C11.1818 8.23024 10.5999 7.64771 9.89283 7.64771Z" fill="white"/>
</svg>
