<svg width="72" height="72" viewBox="0 0 72 72" fill="none" xmlns="http://www.w3.org/2000/svg">
<rect width="72" height="72" rx="16" fill="#ECEEF7"/>
<path d="M45.683 49.6847L45.2483 48.2576V46.6761H26.7218V48.291L26.2974 49.6847H45.683Z" fill="#1A72F6"/>
<path d="M44.2515 43.745H44.2571C44.2571 39.4551 40.9902 35.9282 36.8085 35.5161V34.4277H37.7844V32.7862H34.1912V34.4277H35.1671V35.5161C31.011 35.9257 27.7591 39.4121 27.7195 43.6664L27.7185 43.7449L27.724 45.3475H44.2571L44.2515 43.745Z" fill="#1A72F6"/>
<path d="M41.3658 23.0151L41.1634 23.8804C40.8779 25.1002 39.9132 26.0691 38.7059 26.3485C37.4301 26.6441 35.9607 26.4591 34.9666 26.2945C33.8453 26.1086 32.6671 26.172 31.5597 26.4783L29.9349 26.9274C28.9094 27.2106 27.9656 27.6881 27.1296 28.346L24.3272 30.828C23.5974 31.3666 24.1378 33.0305 25.4728 32.2004L28.2312 30.3745L30.9598 29.585L32.8965 29.543L31.591 30.2344C31.0952 30.4893 30.883 31.0892 31.108 31.6001C31.1859 31.7768 31.3126 31.9285 31.4741 32.0384C31.7167 32.203 32.0221 32.2629 32.3121 32.2026L36.139 31.4046L39.0607 32.1928C39.4782 32.3054 39.8893 32.4437 40.3135 32.4323C41.4008 32.4025 42.4812 31.8863 43.285 31.1227L43.294 31.1142L46.8792 26.7607L41.3658 23.0151Z" fill="#284D84"/>
<path d="M24.3538 32.2899L27.4549 30.0359C28.2909 29.378 30.2398 28.1337 37.424 28.752C38.428 28.8385 39.8875 29.1019 41.1634 28.8063C42.1238 28.5838 43.976 26.2298 44.6936 25.2761L41.3651 23.0148L41.1627 23.8798C40.8772 25.0998 39.9125 26.0687 38.705 26.3482C37.4292 26.6436 35.9599 26.4588 34.9657 26.2939C33.8444 26.1081 32.6664 26.1717 31.559 26.4778L29.9342 26.9268C28.9088 27.2103 27.9649 27.6877 27.1289 28.3457L24.3263 30.8277C23.8623 31.1704 23.9121 31.9684 24.3538 32.2899Z" fill="#284D84"/>
<path d="M40.306 24.6357L45.9436 28.4655C46.299 28.707 46.7829 28.6143 47.0242 28.2586L47.8479 27.0435C48.0887 26.6883 47.9962 26.2053 47.6412 25.9641L42.0036 22.1342C41.6482 21.8927 41.1643 21.9855 40.923 22.3411L40.0993 23.556C39.8585 23.9112 39.951 24.3944 40.306 24.6357Z" fill="#1A72F6"/>
<path d="M40.306 24.6357L42.4717 26.107L44.1682 23.6046L42.0037 22.1342C41.6607 21.9012 41.199 21.9801 40.9503 22.3051L40.0759 23.5948C39.8664 23.9456 39.9635 24.4031 40.306 24.6357Z" fill="#1A72F6"/>
</svg>
