<svg width="32" height="32" viewBox="0 0 32 32" fill="none" xmlns="http://www.w3.org/2000/svg">
<circle cx="16" cy="16" r="16" fill="#ECEEF7"/>
<path d="M22.2896 11.1316C21.9378 10.7729 21.52 10.4883 21.0602 10.2941C20.6004 10.1 20.1076 10 19.6098 10C19.1121 10 18.6193 10.1 18.1595 10.2941C17.6997 10.4883 17.2819 10.7729 16.93 11.1316L16.1998 11.8758L15.4696 11.1316C14.7589 10.4073 13.7949 10.0004 12.7898 10.0004C11.7847 10.0004 10.8207 10.4073 10.11 11.1316C9.39928 11.856 9 12.8383 9 13.8627C9 14.887 9.39928 15.8694 10.11 16.5937L10.8402 17.3379L16.1998 22.8L21.5594 17.3379L22.2896 16.5937C22.6416 16.2351 22.9209 15.8094 23.1114 15.3408C23.3019 14.8722 23.4 14.3699 23.4 13.8627C23.4 13.3554 23.3019 12.8532 23.1114 12.3846C22.9209 11.916 22.6416 11.4902 22.2896 11.1316Z" fill="#284D84"/>
</svg>
