<svg width="340" height="353" viewBox="0 0 340 353" fill="none" xmlns="http://www.w3.org/2000/svg">
<path d="M1.15057 19.9318H9.52841V23H13.0568V19.9318H15.2216V16.9744H13.0568V5.54545H8.4375L1.15057 17.0256V19.9318ZM9.59659 16.9744H4.86648V16.8381L9.46023 9.56818H9.59659V16.9744ZM23.8041 23.3835C28.1934 23.3835 30.8439 20.0426 30.8524 14.2898C30.861 8.57954 28.1763 5.30682 23.8041 5.30682C19.4235 5.30682 16.7644 8.57102 16.7559 14.2898C16.7388 20.0256 19.4064 23.375 23.8041 23.3835ZM23.8041 20.3239C21.8013 20.3239 20.5059 18.3125 20.5144 14.2898C20.5229 10.3267 21.8098 8.33239 23.8041 8.33239C25.7899 8.33239 27.0854 10.3267 27.0854 14.2898C27.0939 18.3125 25.7985 20.3239 23.8041 20.3239ZM42.3178 19.7273C42.3263 21.8239 43.6644 23.6051 46.1616 23.6051C48.6332 23.6051 50.0138 21.8239 50.0053 19.7273V18.8068C50.0138 16.6932 48.6672 14.929 46.1616 14.929C43.6985 14.929 42.3263 16.7102 42.3178 18.8068V19.7273ZM33.3604 9.73864C33.3689 11.8352 34.707 13.5994 37.1957 13.5994C39.6758 13.5994 41.0564 11.8523 41.0479 9.73864V8.81818C41.0564 6.70454 39.7099 4.94034 37.1957 4.94034C34.7582 4.94034 33.3689 6.70454 33.3604 8.81818V9.73864ZM34.1957 23H36.4201L48.4201 5.54545H46.1957L34.1957 23ZM44.7979 18.8068C44.8064 17.9716 45.1388 17.1108 46.1616 17.1108C47.2354 17.1108 47.5167 17.9716 47.5082 18.8068V19.7273C47.5167 20.5625 47.2013 21.4062 46.1616 21.4062C45.1218 21.4062 44.8064 20.5369 44.7979 19.7273V18.8068ZM35.8576 8.81818C35.8661 8.00852 36.1814 7.12216 37.1957 7.12216C38.2695 7.12216 38.5593 7.98295 38.5508 8.81818V9.73864C38.5593 10.5739 38.2354 11.4176 37.1957 11.4176C36.19 11.4176 35.8661 10.5739 35.8576 9.73864V8.81818ZM73.6456 14.2727C73.6456 8.5625 70.1001 5.30682 65.4723 5.30682C60.8189 5.30682 57.299 8.5625 57.299 14.2727C57.299 19.9574 60.8189 23.2386 65.4723 23.2386C70.1001 23.2386 73.6456 19.983 73.6456 14.2727ZM69.9041 14.2727C69.9041 17.9716 68.1484 19.9744 65.4723 19.9744C62.7876 19.9744 61.0405 17.9716 61.0405 14.2727C61.0405 10.5739 62.7876 8.57102 65.4723 8.57102C68.1484 8.57102 69.9041 10.5739 69.9041 14.2727ZM75.6592 23H79.3496V15.7898H86.449V12.7472H79.3496V8.58807H87.2161V5.54545H75.6592V23ZM88.9783 23H92.6686V15.7898H99.7681V12.7472H92.6686V8.58807H100.535V5.54545H88.9783V23ZM109.128 23H110.722V14.9801H118.435V13.5483H110.722V6.97727H119.228V5.54545H109.128V23ZM122.015 23H123.532V14.5455C123.532 12.6023 125.024 11.196 127.069 11.196C127.47 11.196 127.845 11.2642 127.981 11.2812V9.73864C127.776 9.73011 127.427 9.71307 127.18 9.71307C125.535 9.71307 124.129 10.5994 123.6 11.9205H123.489V9.90909H122.015V23ZM129.867 23H131.392V9.90909H129.867V23ZM130.642 7.65909C131.264 7.65909 131.784 7.16477 131.784 6.56818C131.784 5.97159 131.264 5.47727 130.642 5.47727C130.02 5.47727 129.509 5.97159 129.509 6.56818C129.509 7.16477 130.02 7.65909 130.642 7.65909ZM139.397 23.2727C141.775 23.2727 142.883 21.7642 143.42 20.571H143.599V23H145.082V5.54545H143.557V12.4062H143.42C142.9 11.2301 141.818 9.73011 139.423 9.73011C136.193 9.73011 134.011 12.4574 134.011 16.4886C134.011 20.554 136.184 23.2727 139.397 23.2727ZM139.576 21.8835C136.968 21.8835 135.537 19.5142 135.537 16.4631C135.537 13.446 136.951 11.1108 139.576 11.1108C142.133 11.1108 143.582 13.3267 143.582 16.4631C143.582 19.625 142.116 21.8835 139.576 21.8835ZM152.339 23.2983C154.521 23.2983 155.851 22.0881 156.396 20.929H156.49V23H158.007V14.1108C158.007 10.5994 155.365 9.73011 153.362 9.73011C151.359 9.73011 149.297 10.5227 148.41 12.6619L149.851 13.1818C150.328 12.0568 151.513 11.0938 153.405 11.0938C155.391 11.0938 156.49 12.1847 156.49 13.9744V14.2812C156.49 15.2699 155.263 15.2869 153.064 15.5597C150.106 15.9261 148.035 16.7528 148.035 19.3438C148.035 21.8665 149.962 23.2983 152.339 23.2983ZM152.544 21.9091C150.831 21.9091 149.552 20.9972 149.552 19.4119C149.552 17.8267 150.848 17.1619 153.064 16.8892C154.138 16.7614 156.047 16.5227 156.49 16.0881V17.9801C156.49 20.1278 154.964 21.9091 152.544 21.9091ZM161.911 27.9091C163.547 27.9091 164.749 26.9716 165.448 25.071L170.996 9.93466L169.342 9.90909L165.456 20.9972H165.337L161.45 9.90909H159.805L164.621 23.1278L164.144 24.4574C163.419 26.4347 162.396 26.7841 160.854 26.2983L160.445 27.6364C160.752 27.7812 161.314 27.9091 161.911 27.9091Z" fill="white"/>
<path d="M4.08168 56.0227C5.89134 56.0227 7.23367 55.1378 7.23367 53.1989V45.3636H6.36861V46.8203H6.27912C5.96591 46.1342 5.33452 45.2592 3.93253 45.2592C2.04332 45.2592 0.775568 46.8402 0.775568 49.1619C0.775568 51.5036 2.08807 52.9205 3.91761 52.9205C5.28977 52.9205 5.96094 52.125 6.2642 51.424H6.34375V53.1442C6.34375 54.5661 5.43395 55.2273 4.08168 55.2273C2.77415 55.2273 2.14773 54.5959 1.82457 54.0142L1.09872 54.4915C1.54616 55.3665 2.5206 56.0227 4.08168 56.0227ZM4.02202 52.1101C2.50568 52.1101 1.66548 50.897 1.66548 49.147C1.66548 47.4268 2.49077 46.0646 4.02202 46.0646C5.51847 46.0646 6.35866 47.3572 6.35866 49.147C6.35866 50.9915 5.49361 52.1101 4.02202 52.1101ZM12.6639 53.1591C14.1951 53.1591 15.2243 52.3288 15.5723 51.3693L14.7321 51.0959C14.4387 51.782 13.7477 52.3487 12.6639 52.3487C11.1028 52.3487 10.1135 51.2102 10.0737 49.4453H15.7612V49.0078C15.7612 46.4574 14.1852 45.2592 12.5297 45.2592C10.551 45.2592 9.18377 46.9148 9.18377 49.2266C9.18377 51.5433 10.5261 53.1591 12.6639 53.1591ZM10.0787 48.6648C10.1731 47.2429 11.1326 46.0646 12.5297 46.0646C13.8968 46.0646 14.8564 47.1932 14.8564 48.6648H10.0787ZM20.7191 45.3636H19.1033V43.5341H18.2134V45.3636H17.0749V46.1342H18.2134V51.2152C18.2134 52.4631 19.1978 53.1143 20.1772 53.1143C20.5451 53.1143 20.7937 53.0447 20.9627 52.9801L20.7738 52.1797C20.6495 52.2145 20.4904 52.2493 20.2567 52.2493C19.6552 52.2493 19.1033 51.9659 19.1033 51.0064V46.1342H20.7191V45.3636ZM27.2828 55.8636C28.2374 55.8636 28.9384 55.3168 29.3461 54.2081L32.5826 45.3786L31.6181 45.3636L29.351 51.8317H29.2814L27.0144 45.3636H26.0549L28.8638 53.0746L28.5854 53.8501C28.1628 55.0036 27.5662 55.2074 26.6664 54.924L26.4277 55.7045C26.6067 55.7891 26.9348 55.8636 27.2828 55.8636ZM37.0036 53.1591C38.9822 53.1591 40.3643 51.5433 40.3643 49.2166C40.3643 46.875 38.9822 45.2592 37.0036 45.2592C35.0249 45.2592 33.6428 46.875 33.6428 49.2166C33.6428 51.5433 35.0249 53.1591 37.0036 53.1591ZM37.0036 52.3487C35.4176 52.3487 34.5327 50.9268 34.5327 49.2166C34.5327 47.5064 35.4176 46.0646 37.0036 46.0646C38.5895 46.0646 39.4744 47.5064 39.4744 49.2166C39.4744 50.9268 38.5895 52.3487 37.0036 52.3487ZM47.1593 50.0817C47.1593 51.4837 46.1053 52.2393 45.0712 52.2393C43.9675 52.2393 43.1919 51.4489 43.1919 50.2557V45.3636H42.307V50.3104C42.307 52.12 43.351 53.0994 44.8176 53.0994C45.9363 53.0994 46.7317 52.5178 47.0897 51.7322H47.1593V53H48.0442V45.3636H47.1593V50.0817ZM50.3871 53H51.272V48.0682C51.272 46.9347 52.142 46.1143 53.3352 46.1143C53.5689 46.1143 53.7876 46.1541 53.8672 46.1641V45.2642C53.7479 45.2592 53.544 45.2493 53.3999 45.2493C52.4403 45.2493 51.62 45.7663 51.3118 46.5369H51.2472V45.3636H50.3871V53ZM62.0641 53.1591C63.4512 53.1591 64.0975 52.2791 64.4107 51.5831H64.5151V53H65.3801V42.8182H64.4902V46.8203H64.4107C64.1074 46.1342 63.476 45.2592 62.079 45.2592C60.1948 45.2592 58.9221 46.8501 58.9221 49.2017C58.9221 51.5732 60.1898 53.1591 62.0641 53.1591ZM62.1685 52.3487C60.6472 52.3487 59.812 50.9666 59.812 49.1868C59.812 47.4268 60.6373 46.0646 62.1685 46.0646C63.66 46.0646 64.5051 47.3572 64.5051 49.1868C64.5051 51.0312 63.65 52.3487 62.1685 52.3487ZM70.9881 53.1591C72.5194 53.1591 73.5485 52.3288 73.8965 51.3693L73.0563 51.0959C72.763 51.782 72.0719 52.3487 70.9881 52.3487C69.427 52.3487 68.4377 51.2102 68.3979 49.4453H74.0854V49.0078C74.0854 46.4574 72.5094 45.2592 70.8539 45.2592C68.8752 45.2592 67.508 46.9148 67.508 49.2266C67.508 51.5433 68.8503 53.1591 70.9881 53.1591ZM68.4029 48.6648C68.4973 47.2429 69.4569 46.0646 70.8539 46.0646C72.2211 46.0646 73.1806 47.1932 73.1806 48.6648H68.4029ZM76.9205 42.8182H76.0355V53H76.9205V42.8182ZM79.272 53H80.1619V45.3636H79.272V53ZM79.7244 44.0511C80.0874 44.0511 80.3906 43.7628 80.3906 43.4148C80.3906 43.0668 80.0874 42.7784 79.7244 42.7784C79.3615 42.7784 79.0632 43.0668 79.0632 43.4148C79.0632 43.7628 79.3615 44.0511 79.7244 44.0511ZM88.4135 45.3636H87.454L85.187 51.8317H85.1174L82.8503 45.3636H81.8908L84.6799 53H85.6245L88.4135 45.3636ZM92.9588 53.1591C94.4901 53.1591 95.5192 52.3288 95.8672 51.3693L95.027 51.0959C94.7337 51.782 94.0426 52.3487 92.9588 52.3487C91.3977 52.3487 90.4084 51.2102 90.3686 49.4453H96.0561V49.0078C96.0561 46.4574 94.4801 45.2592 92.8246 45.2592C90.8459 45.2592 89.4787 46.9148 89.4787 49.2266C89.4787 51.5433 90.821 53.1591 92.9588 53.1591ZM90.3736 48.6648C90.468 47.2429 91.4276 46.0646 92.8246 46.0646C94.1918 46.0646 95.1513 47.1932 95.1513 48.6648H90.3736ZM98.0062 53H98.8912V48.0682C98.8912 46.9347 99.7612 46.1143 100.954 46.1143C101.188 46.1143 101.407 46.1541 101.486 46.1641V45.2642C101.367 45.2592 101.163 45.2493 101.019 45.2493C100.059 45.2493 99.2392 45.7663 98.9309 46.5369H98.8663V45.3636H98.0062V53ZM103.006 53H103.896V45.3636H103.006V53ZM103.459 44.0511C103.822 44.0511 104.125 43.7628 104.125 43.4148C104.125 43.0668 103.822 42.7784 103.459 42.7784C103.096 42.7784 102.798 43.0668 102.798 43.4148C102.798 43.7628 103.096 44.0511 103.459 44.0511ZM109.324 53.1591C110.855 53.1591 111.884 52.3288 112.232 51.3693L111.392 51.0959C111.099 51.782 110.408 52.3487 109.324 52.3487C107.763 52.3487 106.774 51.2102 106.734 49.4453H112.421V49.0078C112.421 46.4574 110.845 45.2592 109.19 45.2592C107.211 45.2592 105.844 46.9148 105.844 49.2266C105.844 51.5433 107.186 53.1591 109.324 53.1591ZM106.739 48.6648C106.833 47.2429 107.793 46.0646 109.19 46.0646C110.557 46.0646 111.517 47.1932 111.517 48.6648H106.739ZM119.502 47.0391C119.129 45.9354 118.314 45.2592 116.917 45.2592C115.376 45.2592 114.257 46.1392 114.257 47.397C114.257 48.4212 114.879 49.1172 116.206 49.4354L117.454 49.7337C118.294 49.9325 118.697 50.3651 118.697 50.9766C118.697 51.772 117.936 52.3636 116.763 52.3636C115.719 52.3636 115.067 51.8913 114.854 50.9865L114.004 51.1953C114.272 52.468 115.281 53.1591 116.778 53.1591C118.458 53.1591 119.612 52.2344 119.612 50.9368C119.612 49.9176 118.97 49.2365 117.692 48.9233L116.539 48.6399C115.589 48.4013 115.147 48.0185 115.147 47.3572C115.147 46.5817 115.888 46.0398 116.917 46.0398C117.946 46.0398 118.453 46.5817 118.692 47.2678L119.502 47.0391ZM128.236 53.1591C129.623 53.1591 130.269 52.2791 130.583 51.5831H130.687V53H131.552V42.8182H130.662V46.8203H130.583C130.279 46.1342 129.648 45.2592 128.251 45.2592C126.367 45.2592 125.094 46.8501 125.094 49.2017C125.094 51.5732 126.362 53.1591 128.236 53.1591ZM128.34 52.3487C126.819 52.3487 125.984 50.9666 125.984 49.1868C125.984 47.4268 126.809 46.0646 128.34 46.0646C129.832 46.0646 130.677 47.3572 130.677 49.1868C130.677 51.0312 129.822 52.3487 128.34 52.3487ZM137.041 53.1591C139.019 53.1591 140.401 51.5433 140.401 49.2166C140.401 46.875 139.019 45.2592 137.041 45.2592C135.062 45.2592 133.68 46.875 133.68 49.2166C133.68 51.5433 135.062 53.1591 137.041 53.1591ZM137.041 52.3487C135.455 52.3487 134.57 50.9268 134.57 49.2166C134.57 47.5064 135.455 46.0646 137.041 46.0646C138.627 46.0646 139.512 47.5064 139.512 49.2166C139.512 50.9268 138.627 52.3487 137.041 52.3487ZM143.229 48.2273C143.229 46.8949 144.104 46.0746 145.307 46.0746C146.48 46.0746 147.236 46.8601 147.236 48.108V53H148.121V48.0533C148.121 46.2436 147.072 45.2642 145.531 45.2642C144.412 45.2642 143.642 45.7812 143.284 46.5618H143.204V45.3636H142.344V53H143.229V48.2273ZM153.539 53.1591C155.07 53.1591 156.099 52.3288 156.447 51.3693L155.607 51.0959C155.314 51.782 154.623 52.3487 153.539 52.3487C151.978 52.3487 150.988 51.2102 150.949 49.4453H156.636V49.0078C156.636 46.4574 155.06 45.2592 153.405 45.2592C151.426 45.2592 150.059 46.9148 150.059 49.2266C150.059 51.5433 151.401 53.1591 153.539 53.1591ZM150.954 48.6648C151.048 47.2429 152.008 46.0646 153.405 46.0646C154.772 46.0646 155.731 47.1932 155.731 48.6648H150.954ZM164.219 53H165.134L166.944 46.7408H167.038L168.848 53H169.762L172.069 45.3636H171.135L169.325 51.6477H169.255L167.466 45.3636H166.526L164.721 51.6626H164.657L162.847 45.3636H161.912L164.219 53ZM173.799 53H174.689V45.3636H173.799V53ZM174.252 44.0511C174.615 44.0511 174.918 43.7628 174.918 43.4148C174.918 43.0668 174.615 42.7784 174.252 42.7784C173.889 42.7784 173.591 43.0668 173.591 43.4148C173.591 43.7628 173.889 44.0511 174.252 44.0511ZM180.037 45.3636H178.422V43.5341H177.532V45.3636H176.393V46.1342H177.532V51.2152C177.532 52.4631 178.516 53.1143 179.496 53.1143C179.863 53.1143 180.112 53.0447 180.281 52.9801L180.092 52.1797C179.968 52.2145 179.809 52.2493 179.575 52.2493C178.974 52.2493 178.422 51.9659 178.422 51.0064V46.1342H180.037V45.3636ZM183.096 48.2273C183.096 46.8949 183.991 46.0746 185.214 46.0746C186.397 46.0746 187.153 46.8501 187.153 48.108V53H188.043V48.0533C188.043 46.2337 186.989 45.2642 185.438 45.2642C184.284 45.2642 183.534 45.7713 183.176 46.5618H183.096V42.8182H182.211V53H183.096V48.2273ZM190.383 53H191.273V45.3636H190.383V53ZM190.836 44.0511C191.199 44.0511 191.502 43.7628 191.502 43.4148C191.502 43.0668 191.199 42.7784 190.836 42.7784C190.473 42.7784 190.175 43.0668 190.175 43.4148C190.175 43.7628 190.473 44.0511 190.836 44.0511ZM194.499 48.2273C194.499 46.8949 195.374 46.0746 196.577 46.0746C197.75 46.0746 198.506 46.8601 198.506 48.108V53H199.391V48.0533C199.391 46.2436 198.342 45.2642 196.8 45.2642C195.682 45.2642 194.911 45.7812 194.553 46.5618H194.474V45.3636H193.614V53H194.499V48.2273ZM4.17614 63.3636H2.56037V61.5341H1.67045V63.3636H0.53196V64.1342H1.67045V69.2152C1.67045 70.4631 2.65483 71.1143 3.63423 71.1143C4.00213 71.1143 4.25071 71.0447 4.41974 70.9801L4.23082 70.1797C4.10653 70.2145 3.94744 70.2493 3.71378 70.2493C3.11222 70.2493 2.56037 69.9659 2.56037 69.0064V64.1342H4.17614V63.3636ZM9.07191 71.1591C11.0506 71.1591 12.4327 69.5433 12.4327 67.2166C12.4327 64.875 11.0506 63.2592 9.07191 63.2592C7.09322 63.2592 5.71112 64.875 5.71112 67.2166C5.71112 69.5433 7.09322 71.1591 9.07191 71.1591ZM9.07191 70.3487C7.48597 70.3487 6.60103 68.9268 6.60103 67.2166C6.60103 65.5064 7.48597 64.0646 9.07191 64.0646C10.6578 64.0646 11.5428 65.5064 11.5428 67.2166C11.5428 68.9268 10.6578 70.3487 9.07191 70.3487ZM17.1246 71.1591C18.5117 71.1591 19.158 70.2791 19.4712 69.5831H19.5756V71H20.4407V60.8182H19.5508V64.8203H19.4712C19.168 64.1342 18.5366 63.2592 17.1396 63.2592C15.2553 63.2592 13.9826 64.8501 13.9826 67.2017C13.9826 69.5732 15.2504 71.1591 17.1246 71.1591ZM17.229 70.3487C15.7077 70.3487 14.8725 68.9666 14.8725 67.1868C14.8725 65.4268 15.6978 64.0646 17.229 64.0646C18.7205 64.0646 19.5657 65.3572 19.5657 67.1868C19.5657 69.0312 18.7106 70.3487 17.229 70.3487ZM25.0941 71.174C26.3668 71.174 27.1424 70.468 27.4606 69.7919H27.5153V71H28.4002V65.8146C28.4002 63.7663 26.859 63.2592 25.6907 63.2592C24.5224 63.2592 23.3192 63.7216 22.8022 64.9695L23.6424 65.2727C23.9208 64.6165 24.6119 64.0547 25.7156 64.0547C26.8739 64.0547 27.5153 64.6911 27.5153 65.7351V65.9141C27.5153 66.4908 26.7994 66.5007 25.5167 66.6598C23.7915 66.8736 22.5835 67.3558 22.5835 68.8672C22.5835 70.3388 23.707 71.174 25.0941 71.174ZM25.2134 70.3636C24.2141 70.3636 23.4684 69.8317 23.4684 68.907C23.4684 67.9822 24.2241 67.5945 25.5167 67.4354C26.1431 67.3608 27.2567 67.2216 27.5153 66.968V68.0717C27.5153 69.3246 26.6254 70.3636 25.2134 70.3636ZM31.0973 73.8636C32.0518 73.8636 32.7528 73.3168 33.1605 72.2081L36.397 63.3786L35.4325 63.3636L33.1655 69.8317H33.0959L30.8288 63.3636H29.8693L32.6783 71.0746L32.3999 71.8501C31.9773 73.0036 31.3807 73.2074 30.4808 72.924L30.2422 73.7045C30.4212 73.7891 30.7493 73.8636 31.0973 73.8636ZM43.7562 71H44.671L46.4806 64.7408H46.5751L48.3848 71H49.2995L51.6064 63.3636H50.6717L48.862 69.6477H48.7924L47.0027 63.3636H46.063L44.2583 69.6626H44.1937L42.3841 63.3636H41.4494L43.7562 71ZM53.3365 71H54.2264V63.3636H53.3365V71ZM53.7889 62.0511C54.1518 62.0511 54.4551 61.7628 54.4551 61.4148C54.4551 61.0668 54.1518 60.7784 53.7889 60.7784C53.426 60.7784 53.1277 61.0668 53.1277 61.4148C53.1277 61.7628 53.426 62.0511 53.7889 62.0511ZM59.5746 63.3636H57.9588V61.5341H57.0689V63.3636H55.9304V64.1342H57.0689V69.2152C57.0689 70.4631 58.0533 71.1143 59.0327 71.1143C59.4006 71.1143 59.6491 71.0447 59.8182 70.9801L59.6293 70.1797C59.505 70.2145 59.3459 70.2493 59.1122 70.2493C58.5107 70.2493 57.9588 69.9659 57.9588 69.0064V64.1342H59.5746V63.3636ZM62.6333 66.2273C62.6333 64.8949 63.5282 64.0746 64.7512 64.0746C65.9345 64.0746 66.6902 64.8501 66.6902 66.108V71H67.5801V66.0533C67.5801 64.2337 66.5261 63.2642 64.975 63.2642C63.8216 63.2642 63.0708 63.7713 62.7129 64.5618H62.6333V60.8182H61.7484V71H62.6333V66.2273ZM74.733 60.8182H73.848V71H74.733V60.8182ZM80.0426 71.1591C82.0213 71.1591 83.4034 69.5433 83.4034 67.2166C83.4034 64.875 82.0213 63.2592 80.0426 63.2592C78.0639 63.2592 76.6818 64.875 76.6818 67.2166C76.6818 69.5433 78.0639 71.1591 80.0426 71.1591ZM80.0426 70.3487C78.4567 70.3487 77.5717 68.9268 77.5717 67.2166C77.5717 65.5064 78.4567 64.0646 80.0426 64.0646C81.6286 64.0646 82.5135 65.5064 82.5135 67.2166C82.5135 68.9268 81.6286 70.3487 80.0426 70.3487ZM86.7816 71H87.6964L89.506 64.7408H89.6005L91.4102 71H92.3249L94.6317 63.3636H93.6971L91.8874 69.6477H91.8178L90.0281 63.3636H89.0884L87.2837 69.6626H87.2191L85.4094 63.3636H84.4748L86.7816 71ZM99.1795 71.1591C100.711 71.1591 101.74 70.3288 102.088 69.3693L101.248 69.0959C100.954 69.782 100.263 70.3487 99.1795 70.3487C97.6184 70.3487 96.6291 69.2102 96.5893 67.4453H102.277V67.0078C102.277 64.4574 100.701 63.2592 99.0453 63.2592C97.0666 63.2592 95.6994 64.9148 95.6994 67.2266C95.6994 69.5433 97.0417 71.1591 99.1795 71.1591ZM96.5943 66.6648C96.6887 65.2429 97.6483 64.0646 99.0453 64.0646C100.412 64.0646 101.372 65.1932 101.372 66.6648H96.5943ZM104.227 71H105.112V66.0682C105.112 64.9347 105.982 64.1143 107.175 64.1143C107.409 64.1143 107.627 64.1541 107.707 64.1641V63.2642C107.588 63.2592 107.384 63.2493 107.24 63.2493C106.28 63.2493 105.46 63.7663 105.152 64.5369H105.087V63.3636H104.227V71ZM113.155 71H114.04V66.0682C114.04 64.9347 114.91 64.1143 116.103 64.1143C116.336 64.1143 116.555 64.1541 116.635 64.1641V63.2642C116.515 63.2592 116.312 63.2493 116.167 63.2493C115.208 63.2493 114.388 63.7663 114.079 64.5369H114.015V63.3636H113.155V71ZM120.278 71.174C121.55 71.174 122.326 70.468 122.644 69.7919H122.699V71H123.584V65.8146C123.584 63.7663 122.043 63.2592 120.874 63.2592C119.706 63.2592 118.503 63.7216 117.986 64.9695L118.826 65.2727C119.104 64.6165 119.795 64.0547 120.899 64.0547C122.058 64.0547 122.699 64.6911 122.699 65.7351V65.9141C122.699 66.4908 121.983 66.5007 120.7 66.6598C118.975 66.8736 117.767 67.3558 117.767 68.8672C117.767 70.3388 118.891 71.174 120.278 71.174ZM120.397 70.3636C119.398 70.3636 118.652 69.8317 118.652 68.907C118.652 67.9822 119.408 67.5945 120.7 67.4354C121.327 67.3608 122.44 67.2216 122.699 66.968V68.0717C122.699 69.3246 121.809 70.3636 120.397 70.3636ZM128.946 63.3636H127.33V61.5341H126.44V63.3636H125.301V64.1342H126.44V69.2152C126.44 70.4631 127.424 71.1143 128.404 71.1143C128.772 71.1143 129.02 71.0447 129.189 70.9801L129 70.1797C128.876 70.2145 128.717 70.2493 128.483 70.2493C127.882 70.2493 127.33 69.9659 127.33 69.0064V64.1342H128.946V63.3636ZM133.961 71.1591C135.492 71.1591 136.521 70.3288 136.869 69.3693L136.029 69.0959C135.736 69.782 135.045 70.3487 133.961 70.3487C132.4 70.3487 131.41 69.2102 131.371 67.4453H137.058V67.0078C137.058 64.4574 135.482 63.2592 133.827 63.2592C131.848 63.2592 130.481 64.9148 130.481 67.2266C130.481 69.5433 131.823 71.1591 133.961 71.1591ZM131.376 66.6648C131.47 65.2429 132.43 64.0646 133.827 64.0646C135.194 64.0646 136.153 65.1932 136.153 66.6648H131.376ZM144.139 65.0391C143.766 63.9354 142.951 63.2592 141.554 63.2592C140.012 63.2592 138.894 64.1392 138.894 65.397C138.894 66.4212 139.515 67.1172 140.843 67.4354L142.091 67.7337C142.931 67.9325 143.333 68.3651 143.333 68.9766C143.333 69.772 142.573 70.3636 141.4 70.3636C140.355 70.3636 139.704 69.8913 139.49 68.9865L138.64 69.1953C138.909 70.468 139.918 71.1591 141.414 71.1591C143.095 71.1591 144.248 70.2344 144.248 68.9368C144.248 67.9176 143.607 67.2365 142.329 66.9233L141.176 66.6399C140.226 66.4013 139.784 66.0185 139.784 65.3572C139.784 64.5817 140.525 64.0398 141.554 64.0398C142.583 64.0398 143.09 64.5817 143.328 65.2678L144.139 65.0391ZM146.892 71.0746C147.29 71.0746 147.608 70.7514 147.608 70.3587C147.608 69.9609 147.29 69.6428 146.892 69.6428C146.499 69.6428 146.176 69.9609 146.176 70.3587C146.176 70.7514 146.499 71.0746 146.892 71.0746Z" fill="#D1D7FF"/>
<circle cx="27.5791" cy="91" r="4" fill="#4A93FF"/>
<circle cx="15.7896" cy="91" r="4" fill="#4A93FF"/>
<circle cx="4" cy="91" r="4" fill="#1762D2"/>
<g clip-path="url(#clip0)">
<path d="M246.001 308.807C243.783 327.503 234.435 341.075 234.435 341.075L219.489 341.604L218.432 341.656L209.032 341.973H208.292L204.807 342.079L204.014 342.132L174.65 343.188C174.65 343.188 170.32 295.762 193.557 283.298C216.742 270.834 248.219 290.058 246.001 308.807Z" fill="url(#paint0_linear)"/>
<path d="M238.079 307.064L208.979 337.854V341.973H208.24V323.542L201.057 306.958C200.951 306.8 201.057 306.536 201.268 306.483C201.427 306.377 201.638 306.483 201.744 306.694L208.24 321.746V290.375C208.24 290.164 208.398 290.005 208.609 290.005C208.821 290.005 208.979 290.164 208.979 290.375V336.798L217.323 327.925L221.02 304.054C221.073 303.842 221.232 303.737 221.443 303.737C221.654 303.789 221.76 303.948 221.76 304.159L218.221 326.974L237.551 306.536C237.709 306.377 237.921 306.377 238.079 306.536C238.237 306.694 238.237 306.905 238.079 307.064Z" fill="#C7F2FF"/>
<path d="M231.636 328.928L219.436 341.604L218.38 341.656L231.108 328.453C231.266 328.295 231.478 328.295 231.636 328.453C231.742 328.559 231.794 328.77 231.636 328.928Z" fill="#C7F2FF"/>
<path d="M204.754 342.132L203.962 342.185L199.684 330.249L183.734 320.214C183.576 320.109 183.523 319.897 183.629 319.686C183.734 319.528 183.946 319.475 184.157 319.581L199.314 329.14L191.392 307.011C191.339 306.8 191.445 306.589 191.603 306.536C191.815 306.483 191.973 306.589 192.079 306.747L204.754 342.132Z" fill="#C7F2FF"/>
<path d="M184.21 352.8L154.317 348.364L152.997 348.152L150.409 347.783L149.67 347.677L146.343 347.202L145.339 347.043L136.731 345.776L135.146 345.565L117.824 342.977C117.824 342.977 109.004 316.412 129.284 307.645C149.564 298.878 181.991 313.296 185.9 326.763C189.808 340.178 184.21 352.8 184.21 352.8Z" fill="url(#paint1_linear)"/>
<path d="M146.343 347.149L145.339 346.991L124.32 318.841C124.214 318.683 124.214 318.472 124.425 318.313C124.584 318.207 124.795 318.207 124.954 318.366L141.537 340.6L140.745 313.507C140.745 313.296 140.903 313.137 141.114 313.137C141.326 313.137 141.484 313.296 141.484 313.507L142.329 341.656L146.343 347.149Z" fill="#C7F2FF"/>
<path d="M183.101 335.794L165.884 343.294L178.136 344.667C178.347 344.667 178.453 344.878 178.453 345.089C178.453 345.301 178.295 345.406 178.083 345.406H178.031L164.51 343.875L154.265 348.364L152.944 348.152L157.328 346.251L169.052 328.136C169.158 327.978 169.369 327.925 169.528 328.031C169.686 328.136 169.739 328.348 169.633 328.506L158.49 345.67L182.731 335.108C182.889 335.002 183.153 335.108 183.206 335.319C183.365 335.477 183.259 335.689 183.101 335.794Z" fill="#C7F2FF"/>
<path d="M161.236 315.303L150.409 347.783L149.67 347.677L154.529 333.154L150.356 321.165C150.304 320.954 150.409 320.742 150.568 320.69C150.779 320.637 150.937 320.742 151.043 320.901L154.898 331.992L160.549 315.039C160.602 314.827 160.813 314.722 161.025 314.827C161.183 314.88 161.289 315.091 161.236 315.303Z" fill="#C7F2FF"/>
<path d="M136.731 345.723L135.146 345.512L121.415 335.741C121.257 335.636 121.204 335.425 121.309 335.266C121.415 335.108 121.626 335.055 121.785 335.16L136.731 345.723Z" fill="#C7F2FF"/>
<path d="M271.034 288.896C271.562 289.16 319.358 265.658 330.872 241.998C342.438 218.391 339.216 207.564 339.216 207.564C339.216 207.564 286.825 233.971 270.295 264.919C270.348 264.919 258.465 283.245 271.034 288.896Z" fill="#3884F8"/>
<path d="M264.38 269.144C263.958 268.88 256.828 222.563 268.024 202.283C279.273 182.003 288.674 178.887 288.674 178.887C288.674 178.887 296.015 230.01 282.02 257.525C282.02 257.525 274.837 275.376 264.38 269.144Z" fill="#3884F8"/>
<path d="M268.869 267.401C269.714 261.064 270.665 254.779 271.615 248.494C272.566 242.209 273.622 235.925 274.679 229.64C275.735 223.355 276.897 217.07 278.217 210.838C279.485 204.606 280.858 198.375 282.759 192.301C281.016 198.427 279.801 204.659 278.64 210.944C277.478 217.229 276.474 223.514 275.524 229.798C274.573 236.083 273.675 242.421 272.883 248.705C272.038 254.99 271.246 261.328 270.559 267.665L268.869 267.401Z" fill="#A4BADB"/>
<path d="M256.669 311.342C256.141 310.761 263.905 240.097 288.304 214.799C312.704 189.502 327.756 188.604 327.756 188.604C327.756 188.604 318.408 266.451 287.09 301.254C287.09 301.307 269.503 324.598 256.669 311.342Z" fill="#3F8CFF"/>
<path d="M103.236 228.266C100.074 233.72 93.2197 242.944 86.8106 249.733C86.5965 249.989 86.3332 250.226 86.1384 250.433C81.2385 255.546 76.6717 259.086 74.4295 258.149C69.1885 256.036 63.8061 245.753 63.8061 245.753C63.4335 244.245 64.4549 232.391 56.4995 218.546C48.5634 204.652 47.4414 187.418 57.7015 189.175C67.9615 190.933 70.5694 204.381 75.4912 196.611C80.3639 188.822 68.4816 159.252 77.6008 145.413C83.6318 136.263 92.7858 132.31 98.6658 145.227C104.546 158.145 94.2313 178.209 97.9723 183.422C101.694 188.684 108.154 176.127 113.947 186.231C119.721 196.383 108.987 218.382 103.236 228.266Z" fill="#165CC8"/>
<path d="M77.6959 264.261C75.9919 270.331 71.6508 280.971 67.1344 289.142C66.9909 289.444 66.7949 289.739 66.6579 289.988C63.1855 296.16 59.6443 300.726 57.2395 300.377C51.6372 299.635 43.8637 291.017 43.8637 291.017C43.1272 289.65 41.1643 277.915 30.0115 266.487C18.8651 255.007 13.4864 238.595 23.861 237.742C34.2355 236.889 40.1104 249.264 42.9421 240.514C45.7215 231.756 26.8492 206.077 32.2347 190.403C35.7969 180.039 43.678 173.931 52.5897 184.977C61.5014 196.023 56.5087 218.024 61.4301 222.141C66.345 226.31 69.4744 212.541 77.6011 220.883C85.7214 229.277 80.8047 253.256 77.6959 264.261Z" fill="#1C6AE1"/>
<path d="M67.1868 289.149C67.0433 289.45 66.8474 289.746 66.7103 289.995C65.0032 284.836 63.2815 278.931 61.6049 272.659C46.0382 265.105 29.1769 249.038 28.9801 248.907C28.8358 248.783 28.8156 248.514 28.9921 248.377C29.1163 248.232 29.3848 248.212 29.5228 248.389C29.6607 248.565 46.0558 264.096 61.3999 271.729C61.1756 270.957 61.0038 270.191 60.7795 269.418C60.7335 269.359 60.7399 269.307 60.7464 269.254C52.6915 238.253 45.7752 200.156 45.6759 199.665C45.6493 199.448 45.7734 199.304 45.996 199.225C46.2121 199.198 46.4089 199.329 46.4355 199.545C46.5348 200.036 53.2526 237.152 61.176 267.924C63.0445 262.247 71.0521 237.797 71.8516 228.264C71.8774 228.054 72.0539 227.916 72.2636 227.942C72.4733 227.968 72.6112 228.145 72.5854 228.354C71.7224 238.837 62.2227 267.201 61.5455 269.246C63.2634 276.481 65.2425 283.323 67.1868 289.149Z" fill="#2178FA"/>
<circle cx="175" cy="238" r="95" fill="#1762D2"/>
<path d="M97.0311 219.5C96.6086 221.295 96.2917 223.197 96.4502 224.887C96.4502 224.887 95.8692 232.386 87.7888 231.805C79.7084 231.224 72.3146 223.566 71.8921 218.76C71.8921 218.76 74.3743 214.747 76.2756 210.733C77.3318 208.568 78.2297 206.402 78.4937 204.818L99.7246 212.159C99.7774 212.159 97.9817 215.592 97.0311 219.5Z" fill="#F9D2BC"/>
<path d="M99.7775 212.159C99.7775 212.159 98.0347 215.592 97.0841 219.5C94.3906 220.926 91.4331 222.246 88.8452 222.774C83.8808 223.778 78.8636 215.645 76.3813 210.786C77.4376 208.62 78.3354 206.455 78.5995 204.871L99.7775 212.159Z" fill="#ECA867"/>
<path d="M110.076 190.4C110.076 190.4 111.449 190.083 111.766 191.298C112.083 192.46 110.34 198.956 110.34 198.956C110.34 198.956 108.703 192.988 110.076 190.4Z" fill="url(#paint2_linear)"/>
<path d="M68.565 178.887C68.565 178.887 67.8784 187.442 67.8784 190.03C67.9312 192.671 69.6741 202.23 70.1494 202.758C70.6247 203.286 71.7866 204.607 71.7866 204.607L73.8463 178.887L70.9416 177.461L68.565 178.887Z" fill="url(#paint3_linear)"/>
<path d="M112.77 178.992C112.875 182.531 111.713 186.228 110.868 190.136C110.815 190.4 110.763 190.664 110.71 190.875C110.076 194.255 110.182 196.79 110.287 199.272C110.34 201.121 110.446 202.917 110.129 204.976C109.442 209.888 95.2884 221.19 90.3768 219.817C85.4123 218.391 73.4238 209.254 72.0506 205.716C70.6247 202.177 69.1987 183.112 69.1987 183.112C69.1987 175.348 72.7372 169.011 80.5007 163.36C88.2642 157.709 107.33 166.898 110.868 172.549C112.189 174.662 112.717 176.827 112.77 178.992Z" fill="#F9D2BC"/>
<path opacity="0.57" d="M112.769 178.992C112.875 182.531 111.713 186.228 110.868 190.136C110.815 190.4 110.762 190.664 110.709 190.875C106.168 190.77 97.9815 188.182 94.7599 187.231C91.0102 186.122 78.5991 180.26 78.5991 180.26C78.5991 180.26 81.7151 176.14 85.8345 173.605C89.9539 171.07 101.943 173.447 101.943 173.447C101.943 173.447 108.755 176.51 112.769 178.992Z" fill="#ECA867"/>
<path d="M71.3111 192.724C71.3111 193.727 71.2583 194.625 71.2055 195.206C71.2055 195.206 70.5717 195.1 69.7267 194.783C69.5155 194.731 69.2514 194.625 68.9873 194.519C67.1917 193.727 64.9207 192.196 64.9736 189.291C64.9736 186.016 66.7164 184.538 68.512 184.326C68.7761 184.274 69.093 184.274 69.357 184.326C69.6739 184.379 69.9908 184.432 70.3077 184.538C70.5189 184.59 70.7302 184.696 70.8886 184.802C70.8886 184.802 70.8886 184.802 70.8886 184.854C70.8886 184.96 70.9414 185.752 71.0471 186.914C71.2055 188.551 71.3111 190.875 71.3111 192.724Z" fill="#F9D2BC"/>
<path d="M80.0251 178.147L77.9126 182.161C77.9126 182.161 75.2719 185.33 74.6382 187.548C74.0044 189.819 71.8391 194.044 71.8391 194.044C71.6278 193.674 71.4694 193.199 71.311 192.724C70.73 190.347 70.9941 187.073 71.0469 186.914C70.9413 185.699 70.8885 184.802 70.8885 184.802C70.2019 184.379 69.3041 184.221 68.4591 184.326L68.4062 184.274L68.7759 179.045L80.0251 178.147Z" fill="url(#paint4_linear)"/>
<path d="M96.7672 196.104C96.7144 195.998 96.6616 195.892 96.6087 195.787C96.5031 195.576 96.4503 195.311 96.3975 195.1C96.3447 194.889 96.2919 194.625 96.2391 194.414C96.1862 194.308 96.1862 194.15 96.1334 194.044C96.0806 193.886 96.0806 193.78 95.975 193.674C95.8694 193.569 95.6581 193.621 95.6581 193.78C95.6053 193.938 95.6581 194.044 95.7109 194.202C95.7109 194.361 95.7637 194.466 95.7637 194.625C95.8165 194.889 95.8165 195.153 95.8694 195.364C95.9222 195.628 95.975 195.84 96.0278 196.104C96.0806 196.262 96.1334 196.368 96.1862 196.526C96.239 196.685 96.2919 196.843 96.4503 196.949C96.7144 197.16 97.0312 196.949 96.9784 196.632C96.9256 196.368 96.8728 196.209 96.7672 196.104Z" fill="#E3837F"/>
<path d="M99.3934 188.431L99.5131 188.551L99.3934 188.431Z" fill="#392337" stroke="#0E1B2E" stroke-width="2"/>
<path d="M104.319 183.851C104.055 183.534 103.633 183.323 103.263 183.217C102.841 183.059 102.365 183.006 101.943 182.953C101.098 182.953 100.2 183.164 99.619 183.745C99.5662 183.798 99.619 183.851 99.6719 183.798C100.306 183.376 101.203 183.323 101.943 183.376C102.313 183.429 102.735 183.481 103.105 183.64C103.474 183.745 103.738 183.957 104.055 184.168C104.267 184.379 104.478 184.009 104.319 183.851Z" fill="#55379F"/>
<mask id="path-34-inside-1" fill="white">
<path d="M91.9083 188.235C91.6442 188.076 91.433 187.865 91.1689 187.759C90.6408 187.442 90.0599 187.284 89.4789 187.284C88.4755 187.231 87.1023 187.548 86.5214 188.446C86.4686 188.551 86.5742 188.71 86.6798 188.604C87.472 188.023 88.5283 187.759 89.4789 187.812C90.007 187.865 90.4824 188.023 90.9049 188.287C91.1161 188.393 91.3274 188.551 91.5386 188.71C91.7499 188.868 91.9611 189.132 92.2252 189.08C92.3836 189.08 92.4364 188.974 92.4364 188.815C92.4364 188.551 92.1196 188.393 91.9083 188.235Z"/>
</mask>
<path d="M91.9083 188.235C91.6442 188.076 91.433 187.865 91.1689 187.759C90.6408 187.442 90.0599 187.284 89.4789 187.284C88.4755 187.231 87.1023 187.548 86.5214 188.446C86.4686 188.551 86.5742 188.71 86.6798 188.604C87.472 188.023 88.5283 187.759 89.4789 187.812C90.007 187.865 90.4824 188.023 90.9049 188.287C91.1161 188.393 91.3274 188.551 91.5386 188.71C91.7499 188.868 91.9611 189.132 92.2252 189.08C92.3836 189.08 92.4364 188.974 92.4364 188.815C92.4364 188.551 92.1196 188.393 91.9083 188.235Z" fill="#392337"/>
<path d="M91.9083 188.235L93.1083 186.635L93.0258 186.573L92.9373 186.52L91.9083 188.235ZM91.1689 187.759L90.1399 189.474L90.2773 189.557L90.4261 189.616L91.1689 187.759ZM89.4789 187.284L89.3738 189.281L89.4263 189.284H89.4789V187.284ZM86.5214 188.446L84.8422 187.359L84.7821 187.452L84.7325 187.551L86.5214 188.446ZM86.6798 188.604L85.4971 186.991L85.3737 187.082L85.2656 187.19L86.6798 188.604ZM89.4789 187.812L89.6779 185.822L89.634 185.818L89.5898 185.815L89.4789 187.812ZM90.9049 188.287L89.8449 189.983L89.9254 190.034L90.0104 190.076L90.9049 188.287ZM92.2252 189.08V187.08H92.0271L91.833 187.118L92.2252 189.08ZM92.4364 188.815H94.4364H92.4364ZM92.9373 186.52C92.9377 186.52 92.9339 186.518 92.9247 186.511C92.9153 186.505 92.9022 186.496 92.8831 186.482C92.8632 186.468 92.8417 186.452 92.8119 186.43C92.7848 186.411 92.7474 186.383 92.7096 186.356C92.5692 186.254 92.2846 186.051 91.9117 185.902L90.4261 189.616C90.3173 189.573 90.2703 189.528 90.3677 189.598C90.3893 189.614 90.4112 189.63 90.444 189.654C90.474 189.676 90.5127 189.705 90.554 189.734C90.6365 189.793 90.7481 189.871 90.8793 189.949L92.9373 186.52ZM92.1979 186.044C91.3636 185.544 90.4277 185.284 89.4789 185.284V189.284C89.692 189.284 89.918 189.341 90.1399 189.474L92.1979 186.044ZM89.584 185.287C88.8518 185.248 88.0003 185.341 87.1954 185.616C86.4075 185.885 85.4625 186.401 84.8422 187.359L88.2005 189.532C88.1612 189.593 88.1932 189.502 88.488 189.401C88.7658 189.306 89.1025 189.267 89.3738 189.281L89.584 185.287ZM84.7325 187.551C84.3084 188.4 84.5266 189.311 85.0048 189.885C85.2748 190.209 85.7642 190.586 86.4655 190.634C87.2032 190.685 87.7668 190.346 88.094 190.018L85.2656 187.19C85.54 186.916 86.0508 186.596 86.7406 186.644C87.394 186.689 87.8406 187.039 88.0776 187.324C88.4897 187.818 88.6816 188.597 88.3102 189.34L84.7325 187.551ZM87.8625 190.217C88.234 189.945 88.8183 189.778 89.368 189.809L89.5898 185.815C88.2383 185.74 86.71 186.102 85.4971 186.991L87.8625 190.217ZM89.2799 189.802C89.5227 189.826 89.6998 189.893 89.8449 189.983L91.9649 186.591C91.2649 186.154 90.4914 185.903 89.6779 185.822L89.2799 189.802ZM90.0104 190.076C90.0027 190.072 90.0245 190.083 90.0887 190.127C90.1544 190.172 90.2267 190.226 90.3386 190.31L92.7386 187.11C92.5639 186.979 92.203 186.7 91.7993 186.498L90.0104 190.076ZM90.3386 190.31C90.324 190.299 90.3154 190.291 90.3925 190.357C90.4432 190.401 90.5643 190.506 90.7087 190.608C90.9787 190.798 91.6768 191.229 92.6174 191.041L91.833 187.118C92.1535 187.054 92.443 187.095 92.6608 187.166C92.8576 187.231 92.9814 187.316 93.0155 187.34C93.0477 187.363 93.0598 187.375 93.0033 187.327C92.9731 187.301 92.8589 187.2 92.7386 187.11L90.3386 190.31ZM92.2252 191.08C92.7976 191.08 93.5285 190.854 94.0177 190.169C94.4108 189.619 94.4364 189.048 94.4364 188.815H90.4364C90.4364 188.741 90.4356 188.302 90.7628 187.844C90.9451 187.589 91.1965 187.377 91.4974 187.24C91.7844 187.109 92.0457 187.08 92.2252 187.08V191.08ZM94.4364 188.815C94.4364 187.805 93.8126 187.194 93.5686 186.98C93.4274 186.857 93.2915 186.761 93.2208 186.712C93.2013 186.699 93.1826 186.686 93.1681 186.676C93.1522 186.665 93.1412 186.657 93.1307 186.65C93.109 186.635 93.1049 186.632 93.1083 186.635L90.7083 189.835C90.8 189.903 90.9245 189.988 90.9392 189.998C90.9873 190.031 90.9701 190.022 90.9346 189.991C90.9005 189.961 90.7847 189.856 90.6732 189.672C90.5499 189.469 90.4364 189.174 90.4364 188.815H94.4364Z" fill="#0E1B2E" mask="url(#path-34-inside-1)"/>
<path d="M92.0141 183.27C91.6972 183.059 91.2747 182.9 90.905 182.742C90.5353 182.584 90.1128 182.478 89.7431 182.425C89.3734 182.372 88.9509 182.425 88.634 182.584C88.2115 182.742 87.8947 183.006 87.6306 183.376C87.5778 183.429 87.6834 183.534 87.7362 183.481C88.37 183.059 89.0566 182.795 89.8488 182.953C90.1656 183.006 90.5353 183.112 90.8522 183.27C91.2219 183.429 91.5388 183.64 91.9085 183.693C92.0669 183.693 92.1725 183.429 92.0141 183.27Z" fill="#55379F"/>
<path d="M113.562 177.461C113.298 180.048 112.558 182.425 112.558 182.425C112.558 182.425 102.101 175.876 98.4571 176.035C94.813 176.193 84.8842 179.468 84.8842 179.468L80.7119 180.418C80.0782 180.365 79.3388 180.313 78.5994 180.26C74.0047 179.837 68.5649 178.887 68.5649 178.887C68.5649 178.887 69.8853 172.655 72.0506 169.222C73.0541 167.585 75.4306 165.208 78.7051 163.201C82.4548 160.93 87.4192 159.187 92.9118 159.874C99.7247 160.719 106.749 164.944 109.178 167.69C111.608 170.437 113.826 174.873 113.562 177.461Z" fill="url(#paint5_linear)"/>
<path d="M127.663 184.802L97.4536 180.26C99.9358 178.781 104.372 176.721 110.974 175.718C119.741 174.45 125.18 180.629 126.976 183.164C127.451 184.168 127.663 184.802 127.663 184.802Z" fill="url(#paint6_linear)"/>
<path d="M127.663 184.802L126.976 183.164C125.181 180.629 119.741 174.45 110.974 175.718C104.372 176.668 99.9359 178.781 97.4537 180.26C95.8165 181.21 95.0243 181.95 95.0243 181.95L80.6592 180.418C80.6592 180.418 89.4262 172.232 97.4537 171.334C105.429 170.384 118.949 173.341 123.068 177.144C127.24 180.946 127.663 184.802 127.663 184.802Z" fill="url(#paint7_linear)"/>
<path opacity="0.56" d="M78.5994 180.313C74.0047 179.89 68.5649 178.939 68.5649 178.939C68.5649 178.939 69.8853 172.707 72.0506 169.275C73.0541 167.637 75.4306 165.261 78.7051 163.254C82.0323 162.779 85.9933 162.567 86.5214 164.205C87.472 167.056 78.5994 180.313 78.5994 180.313Z" fill="url(#paint8_linear)"/>
<path d="M110.129 204.976C109.442 209.888 95.288 221.19 90.3764 219.817C88.3695 219.236 85.3064 217.44 82.1904 215.222C77.5429 211.948 72.8953 207.828 72.0503 205.663C72.0503 205.663 74.4269 204.342 75.2191 203.233C78.071 199.272 77.0675 196.156 77.0675 196.156C77.0675 196.156 91.4855 194.519 95.869 195.206C100.252 195.892 110.34 199.272 110.34 199.272C110.34 199.748 110.393 200.223 110.393 200.646C110.393 202.071 110.393 203.445 110.129 204.976Z" fill="white"/>
<path d="M72.0505 205.663C71.9977 205.504 69.5682 199.959 68.9873 194.466C69.2514 194.572 69.4626 194.678 69.7267 194.731C70.3076 199.589 71.9976 203.497 72.7898 205.188C72.8427 205.293 72.8955 205.346 72.8955 205.452L72.0505 205.663Z" fill="white"/>
<path d="M77.9127 196.368L77.1733 196.79C75.7473 192.935 72.7898 186.333 70.9413 184.854V184.802C70.7301 184.643 70.5716 184.538 70.3604 184.538H70.3076C69.9907 184.432 69.6738 184.379 69.3569 184.326C69.7266 183.904 70.0963 183.798 70.4132 183.851C72.9482 184.062 76.962 194.097 77.807 196.104C77.8598 196.209 77.9127 196.315 77.9127 196.368Z" fill="white"/>
<path opacity="0.41" d="M110.128 204.923C109.442 209.888 95.3408 221.19 90.4292 219.817C88.4223 219.236 85.3063 217.44 82.2432 215.275C82.6129 215.328 87.6829 216.278 90.6933 216.701C93.8092 217.123 100.569 211.948 101.995 208.462C103.421 204.976 103.632 200.962 101.995 200.065C100.569 199.325 94.6014 197.53 91.1158 197.213C93.7564 197.266 98.9321 197.424 101.467 198.058C104.161 198.691 108.438 200.065 110.34 200.698C110.393 202.019 110.34 203.392 110.128 204.923Z" fill="url(#paint9_linear)"/>
<path d="M127.663 257.208L125.814 257.367L122.434 257.684L116.942 258.212L107.594 259.11V226.366C107.594 226.366 109.601 227.475 112.083 229.482C112.558 229.851 113.033 230.274 113.509 230.696C114.143 231.277 114.829 231.858 115.463 232.545C116.519 233.654 117.575 234.816 118.473 236.136C122.593 242.157 127.663 257.208 127.663 257.208Z" fill="url(#paint10_linear)"/>
<path opacity="0.58" d="M127.663 257.208L125.814 257.367C124.811 253.617 120.586 238.724 115.463 232.598C116.519 233.707 117.575 234.869 118.473 236.189C122.593 242.157 127.663 257.208 127.663 257.208Z" fill="url(#paint11_linear)"/>
<path opacity="0.72" d="M122.382 257.737L116.889 258.265C116.678 251.821 116.15 246.223 115.305 242.896C113.984 237.404 111.555 232.756 109.759 229.851C110.182 230.115 119.899 236.823 122.382 257.737Z" fill="url(#paint12_linear)"/>
<path d="M116.783 274.478C116.414 281.714 115.727 288.632 114.513 293.544C111.925 304.212 109.707 329.457 108.914 338.752C97.718 336.322 87.1025 333.101 77.3321 329.087C65.9245 324.439 55.8372 318.841 47.5456 312.451C47.4399 300.885 46.6477 284.83 45.4858 277.806C45.2218 276.063 45.0633 273.316 45.0633 269.884C45.0105 254.726 47.4399 227.158 50.1862 225.626C53.5662 223.725 67.5617 220.873 67.5617 220.873C67.5617 220.873 76.0118 230.115 88.7398 230.327C96.6089 230.485 98.7742 223.355 98.7742 223.355L107.488 226.418C107.488 226.418 108.439 227.633 109.759 229.798C111.555 232.756 113.932 237.404 115.305 242.843C116.783 248.811 117.364 262.12 116.783 274.478Z" fill="url(#paint13_linear)"/>
<path opacity="0.72" d="M97.5068 323.383C97.5068 323.383 92.5952 326.024 88.0532 327.344C86.6273 327.767 82.4022 328.4 77.385 329.087C65.9774 324.439 55.8901 318.841 47.5984 312.451C47.4928 300.885 46.7006 284.83 45.5387 277.805C45.2747 276.063 45.1162 273.316 45.1162 269.884L46.1197 261.539L60.1679 231.805C60.1679 231.805 64.0233 240.572 62.9142 250.184C62.9142 250.184 60.5904 268.458 60.1679 274.425C59.7454 280.393 60.1679 310.497 60.1679 310.497L97.5068 323.383Z" fill="#55467C"/>
<path d="M71.9453 218.761C71.9453 218.761 76.3288 226.999 88.8455 230.379L85.2542 239.094C85.2542 239.094 71.2588 231.33 67.6675 220.926L71.9453 218.761Z" fill="url(#paint14_linear)"/>
<path d="M88.7925 230.379C88.7925 230.379 94.7604 228.689 96.556 222.035L98.827 223.408C98.827 223.408 98.4573 230.01 95.4469 237.562L88.7925 230.379Z" fill="url(#paint15_linear)"/>
<path d="M168.012 317.574L104.689 310.919L112.558 241.048L175.828 248.177L168.012 317.574Z" fill="#4690FF"/>
<path d="M175.828 248.177L196.689 246.699L188.873 316.095L168.012 317.574L175.828 248.177Z" fill="#387ADE"/>
<path d="M112.558 241.048L134.159 239.622L196.689 246.699L175.828 248.177L112.558 241.048Z" fill="#79AFFF"/>
<path d="M101.995 318.736C101.89 319.211 101.784 319.739 101.679 320.214C100.147 325.865 97.5063 323.436 97.5063 323.436C97.0838 321.165 97.1894 318.947 97.6119 317.046C98.6153 311.923 101.52 308.332 101.52 308.332C101.52 308.332 102.893 313.507 101.995 318.736Z" fill="url(#paint16_linear)"/>
<path d="M97.2952 319.264C97.1896 320.584 97.2424 321.957 97.5065 323.383C97.5065 323.383 50.4501 312.821 40.7853 308.807C31.1205 304.846 27.7404 298.403 27.1595 291.431C26.5785 284.46 35.2927 243.213 39.9931 235.661C44.6934 228.108 48.8657 225.626 50.186 225.626C50.186 225.626 58.5304 224.306 60.5902 233.548C62.6499 242.79 51.3479 284.566 49.2353 291.959C50.0275 292.171 67.7727 296.924 78.1241 299.881C88.6867 302.892 101.362 308.226 101.362 308.226C101.362 308.226 98.4571 311.817 97.4537 316.94C97.4537 317.732 97.3481 318.472 97.2952 319.264Z" fill="url(#paint17_linear)"/>
<path opacity="0.58" d="M101.467 308.279C101.467 308.279 98.5627 311.87 97.5592 316.993C97.4008 317.732 97.2952 318.472 97.2423 319.264C97.2423 319.264 96.8198 313.771 98.7739 309.229C98.7739 309.229 67.5086 298.561 63.706 297.294C60.0619 296.079 49.9218 292.276 49.2881 292.012C50.0803 292.224 67.8255 296.977 78.1768 299.934C88.7923 302.997 101.467 308.279 101.467 308.279Z" fill="url(#paint18_linear)"/>
<path d="M134.159 314.035C134.159 314.035 129.353 317.891 126.659 318.419C123.966 319 117.998 322.961 113.192 321.799C109.654 320.954 104.848 319.633 101.996 318.683C100.94 318.313 100.147 318.049 99.7776 317.838C99.2495 317.574 98.4045 317.257 97.6123 316.94C97.8236 315.831 98.1404 314.827 98.4573 313.877C99.7248 310.444 101.468 308.226 101.468 308.226C101.468 308.226 105.534 308.12 107.594 306.641C109.654 305.11 115.833 305.585 118.104 302.68C118.104 302.68 119.635 303.05 120.111 304.529C120.269 304.951 120.269 305.48 120.216 306.113C119.741 308.965 117.47 309.493 115.41 309.81C113.351 310.074 111.819 311.712 111.819 311.712L134.159 314.035Z" fill="url(#paint19_linear)"/>
<path d="M134.159 314.035C134.159 314.035 129.353 317.891 126.659 318.419C123.966 319 117.998 322.961 113.192 321.799C109.654 320.954 104.848 319.633 101.996 318.683C100.94 318.313 100.147 318.049 99.7776 317.838C99.2495 317.574 98.4045 317.257 97.6123 316.94C97.8236 315.831 98.1404 314.827 98.4573 313.877C103.052 315.039 110.921 317.257 114.565 318.841C119.847 321.112 123.755 317.257 125.709 316.729C127.61 316.148 129.353 314.458 129.353 314.458L111.819 311.659L134.159 314.035Z" fill="url(#paint20_linear)"/>
<path d="M120.163 306.113C119.688 308.965 117.417 309.493 115.357 309.81C113.298 310.074 111.766 311.712 111.766 311.712C111.766 311.712 108.65 312.24 108.492 311.712C108.333 311.183 110.129 309.493 111.872 309.388C113.667 309.335 116.783 308.384 117.84 307.381C118.579 306.694 119.477 305.321 120.058 304.529C120.269 304.951 120.269 305.48 120.163 306.113Z" fill="url(#paint21_linear)"/>
<path d="M271.773 218.127C271.404 219.394 270.664 220.609 269.661 221.718C264.485 227.475 252.761 230.485 252.761 230.485C252.761 230.485 248.272 232.703 245.05 233.601C243.888 233.918 242.832 234.076 242.251 233.865C241.776 233.707 241.036 232.914 240.138 231.752C239.029 230.221 237.762 228.003 236.6 225.679C236.336 225.151 236.072 224.623 235.861 224.095C234.646 221.507 233.748 218.866 233.484 216.965C233.431 216.648 233.431 216.384 233.431 216.12C233.431 211.314 235.861 207.617 235.861 202.917C235.861 198.216 235.174 185.858 246.212 181.474C257.25 177.091 267.337 181.21 271.457 190.558C275.576 199.959 274.15 210.046 271.773 218.127Z" fill="#E7B193"/>
<path d="M238.554 213.743C238.395 214.535 238.237 215.328 238.079 216.12C237.867 216.965 237.392 217.44 236.758 217.651C236.547 219.817 236.283 221.982 235.86 224.042C236.072 224.57 236.336 225.098 236.6 225.626C237.814 222.669 239.082 218.655 239.663 213.743C239.346 213.849 238.976 213.849 238.554 213.743Z" fill="url(#paint22_linear)"/>
<path d="M240.614 215.539C240.614 215.539 241.776 216.648 242.938 216.701C244.099 216.754 246.001 213.638 246.001 213.638L244.364 209.941L241.406 209.465L240.614 215.539Z" fill="#E7B193"/>
<path d="M269.661 221.665C264.485 227.422 252.761 230.432 252.761 230.432C252.761 230.432 248.272 232.65 245.05 233.548C243.835 233.39 242.673 233.126 242.409 232.756C241.828 231.964 242.937 228.584 245.314 226.101C247.743 223.619 253.553 221.612 256.88 220.767C260.207 219.922 266.545 220.556 266.545 220.556C266.545 220.556 268.763 220.45 269.661 221.665Z" fill="#D48C75"/>
<path d="M269.925 218.813C269.502 220.45 269.186 222.774 268.974 225.256C268.499 230.96 268.499 237.403 268.499 237.403L266.228 237.72L251.493 239.833L248.483 240.361C250.331 236.664 251.229 229.481 251.229 229.481C251.229 229.481 254.979 226.524 259.098 223.566C264.538 219.605 270.717 215.75 269.925 218.813Z" fill="#E7B193"/>
<path d="M268.974 225.256C268.499 230.96 268.499 237.403 268.499 237.403L266.228 237.72C266.175 237.668 266.122 237.615 266.07 237.615C263.376 235.555 258.465 225.732 258.465 225.732L262.531 223.091L268.974 225.256Z" fill="#D48C75"/>
<path d="M259.098 223.408C259.098 223.408 257.197 227.475 256.246 229.534C255.507 231.172 252.602 237.245 251.493 239.674L248.483 240.308C250.331 236.611 251.229 229.323 251.229 229.323C251.229 229.323 254.926 226.313 259.098 223.408Z" fill="#D48C75"/>
<path d="M240.191 231.7C239.082 230.168 237.814 227.95 236.653 225.626C236.389 225.098 236.124 224.57 235.913 224.042C234.699 221.454 233.801 218.813 233.537 216.912L235.544 216.49C235.544 216.49 235.808 218.074 236.547 219.5C236.917 220.239 237.445 220.926 238.131 221.296C238.237 221.348 238.343 221.401 238.448 221.454C238.501 221.507 240.244 229.112 240.191 231.7Z" fill="white"/>
<path d="M242.304 212.159C242.304 213.638 242.04 215.011 241.617 216.331C240.561 219.605 238.607 222.088 238.501 222.246L238.026 221.612C238.079 221.56 239.874 218.813 240.983 215.961C240.983 215.909 241.036 215.909 241.036 215.856C241.723 215.909 242.145 214.377 242.304 212.476V212.159Z" fill="white"/>
<path opacity="0.41" d="M238.131 221.348C237.656 222.985 237.128 224.411 236.6 225.679C236.336 225.151 236.072 224.623 235.86 224.095C236.124 222.616 236.336 221.084 236.547 219.553C236.969 220.292 237.498 220.979 238.131 221.348Z" fill="url(#paint23_linear)"/>
<path d="M240.613 206.772C240.561 207.142 240.508 207.511 240.455 207.934C238.078 210.68 235.702 216.965 235.649 217.018L234.962 216.754C235.121 216.49 237.973 209.096 240.613 206.772Z" fill="white"/>
<path d="M242.304 212.423C242.145 214.324 241.723 215.856 241.036 215.803C240.878 215.803 240.772 215.697 240.614 215.592C240.614 215.592 240.191 210.997 240.455 208.039C240.508 207.617 240.561 207.194 240.614 206.877C240.772 206.191 240.983 205.716 241.3 205.557C242.198 205.135 242.568 209.307 242.304 212.423Z" fill="url(#paint24_linear)"/>
<path d="M276.949 304.37C276.79 305.11 276.685 310.972 276.579 311.553C275.998 312.081 275.365 312.556 274.784 313.085L274.731 313.137C272.882 314.511 270.981 315.831 269.08 317.098C262.848 321.271 256.299 325.02 249.592 328.189C245.789 329.985 241.881 331.569 237.92 333.048C235.649 333.893 233.378 334.685 231.054 335.372C231.266 331.886 231.53 327.027 231.688 325.073C231.847 323.647 231.952 322.221 232.111 320.848C232.216 319.475 232.322 318.102 232.375 316.834C232.375 316.729 232.375 316.57 232.375 316.465C232.375 316.095 232.428 315.725 232.428 315.356C232.533 313.296 232.533 311.5 232.428 310.074C232.375 309.652 232.322 309.282 232.322 308.912C232.269 308.49 232.163 308.12 232.058 307.803C232.005 307.698 231.952 307.539 231.899 307.434C231.899 307.381 231.847 307.328 231.847 307.275C231.741 307.011 231.635 306.694 231.477 306.43C231.371 306.219 231.266 305.955 231.16 305.744C230.949 305.374 230.79 305.004 230.579 304.687C230.421 304.423 230.262 304.159 230.157 303.948C230.051 303.842 229.998 303.684 229.892 303.525C229.787 303.42 229.734 303.261 229.681 303.103C229.1 302.152 228.572 301.149 228.044 300.04C227.886 299.723 227.78 299.406 227.674 299.089C227.622 298.931 227.569 298.719 227.463 298.561C227.41 298.455 227.41 298.35 227.357 298.244C227.357 298.191 227.305 298.086 227.305 298.033C227.252 297.927 227.252 297.874 227.252 297.769C227.252 297.716 227.252 297.663 227.199 297.61C227.146 297.505 227.146 297.452 227.146 297.346C227.093 297.241 227.093 297.135 227.041 297.029C227.041 296.977 226.988 296.924 226.988 296.818C226.935 296.66 226.882 296.448 226.882 296.237C226.777 295.762 226.724 295.287 226.618 294.811C226.565 294.6 226.565 294.336 226.512 294.072C226.46 293.544 226.407 293.016 226.407 292.435V292.382C226.407 292.118 226.354 291.854 226.354 291.59C226.354 291.537 226.354 291.431 226.354 291.378V291.326C226.354 291.114 226.354 290.956 226.354 290.745V290.217C226.407 287.576 227.093 283.562 228.202 279.02C228.572 277.489 228.995 275.904 229.417 274.32C229.787 272.999 230.157 271.679 230.579 270.359C231.002 269.038 231.424 267.665 231.847 266.345C232.058 265.658 232.269 265.025 232.533 264.338C232.744 263.652 233.008 263.018 233.22 262.331C235.596 255.571 238.29 249.339 240.666 245.378C241.3 244.269 241.987 243.371 242.568 242.685C242.568 242.685 242.62 242.685 242.62 242.632C243.413 242.315 250.384 239.463 255.982 237.562H256.035C257.408 237.087 258.676 236.664 259.732 236.4C260.471 236.189 261.263 236.03 262.108 235.925C265.753 235.449 269.978 236.136 274.361 237.456C275.787 239.146 285.822 250.976 287.036 257.472C288.251 264.444 278.956 297.293 276.949 304.37Z" fill="#271F6C"/>
<path d="M276.949 304.37C276.791 305.11 276.685 310.972 276.58 311.553C275.999 312.081 275.365 312.556 274.784 313.085L274.731 313.137C272.883 314.511 270.981 315.831 269.08 317.098C269.186 312.926 269.397 306.589 269.608 305.691C270.717 301.149 271.087 286.414 271.087 278.598C271.087 270.781 271.087 245.009 271.087 245.009C271.087 238.09 262.056 235.925 262.056 235.925C265.7 235.449 269.925 236.136 274.309 237.456C275.734 239.146 285.769 250.976 286.984 257.472C288.251 264.444 278.956 297.293 276.949 304.37Z" fill="#271F6C"/>
<path d="M249.064 262.701C249.064 262.701 242.145 287.101 240.878 291.643C239.61 296.184 236.6 316.465 234.804 320.584C234.223 321.852 233.061 323.436 231.688 325.126C232.428 317.785 232.903 310.286 232.058 307.856C230.157 302.575 226.143 300.621 226.301 290.269C226.354 284.566 229.417 272.947 233.167 262.384L244.469 254.673L249.064 262.701Z" fill="#181344"/>
<path d="M214.63 277.383L206.655 286.731L203.75 290.111C203.75 290.111 180.829 291.801 164.88 288.791C164.88 288.791 164.88 288.791 164.827 288.843C164.563 288.526 162.662 285.991 160.813 285.411C158.859 284.777 155.162 279.443 154.423 278.598C154.423 278.598 152.68 280.605 153.05 282.4C153.472 284.196 155.532 284.83 155.585 285.463C155.585 286.097 146.712 281.08 144.916 280.921C143.279 280.763 141.536 283.034 140.85 284.301C140.797 284.407 140.691 284.565 140.638 284.671C140.216 285.516 140.744 289.055 141.695 291.959C142.012 292.963 142.381 293.913 142.804 294.653C142.909 294.864 143.121 295.022 143.332 295.181C146.606 297.346 161.024 296.607 161.024 296.607L161.077 296.554C162.133 296.818 192.607 304.687 213.309 302.205L222.499 292.54L214.63 277.383Z" fill="#E7B193"/>
<path d="M214.63 277.383L206.655 286.731C206.655 286.731 205.968 292.54 207.394 297.558C207.394 297.558 190.124 299.829 181.305 298.403C172.538 296.977 161.658 295.445 161.658 295.445C161.658 295.445 161.553 295.445 161.341 295.392C159.651 295.181 151.571 294.072 146.659 293.121C146.659 293.121 146.131 291.273 147.293 290.586C148.455 289.9 152.68 290.005 152.68 290.005C152.68 290.005 150.673 289.213 149.458 288.949C148.244 288.685 146.554 287.893 145.761 287.629C144.969 287.365 142.91 286.52 142.276 286.097C141.853 285.833 141.167 284.882 140.797 284.249C140.744 284.354 140.639 284.513 140.586 284.618C140.163 285.463 140.691 289.002 141.642 291.907C141.959 292.91 142.329 293.861 142.751 294.6C142.804 294.706 142.857 294.758 142.962 294.864L143.015 294.917C145.656 297.346 160.972 296.554 160.972 296.554L161.024 296.501C162.081 296.765 192.554 304.635 213.257 302.152L222.446 292.488L214.63 277.383Z" fill="#D48C75"/>
<path d="M248.166 265.922C245.525 274.689 234.17 286.308 226.354 293.544C221.971 297.61 218.696 300.304 218.696 300.304C218.696 300.304 208.556 299.406 206.655 285.833C206.655 285.833 206.655 285.833 206.708 285.78C207.869 283.985 232.639 246.434 242.515 242.685C242.515 242.685 242.568 242.685 242.568 242.632C243.994 242.104 245.208 242.104 246.265 242.526C247.691 243.107 248.747 244.533 249.381 246.487C249.592 247.174 249.803 247.86 249.909 248.653C250.701 253.142 250.173 259.374 248.166 265.922Z" fill="#271F6C"/>
<path opacity="0.58" d="M249.38 246.54C249.645 247.174 249.856 247.913 249.909 248.758C249.75 248.441 247.004 242.368 242.251 243.952C242.251 243.952 241.617 244.48 240.561 245.431C237.498 248.23 230.632 254.832 223.977 263.704C215.422 275.059 207.447 284.935 206.708 285.833C207.869 284.037 232.639 246.487 242.515 242.738C242.515 242.738 242.568 242.738 242.568 242.685C243.36 242.368 250.331 239.516 255.929 237.615L246.265 242.526L246 242.632C246 242.685 248.271 243.952 249.38 246.54Z" fill="url(#paint25_linear)"/>
<path d="M282.125 200.382C282.019 198.005 281.544 195.628 280.751 193.357C279.854 190.717 278.586 188.182 277.054 185.911C274.572 182.319 271.403 179.309 267.971 177.566C265.013 176.035 262.953 175.401 261.475 175.19C261.475 175.19 253.13 170.859 246 173.341C238.923 175.823 233.906 185.541 232.85 192.46C231.794 199.378 237.867 208.779 237.867 208.779C238.501 209.571 239.821 209.994 241.617 210.046C241.723 210.258 241.775 210.469 241.881 210.68C242.568 212.159 243.677 213.69 244.944 215.169C246.317 216.754 248.007 218.285 249.803 219.711C250.437 220.239 251.123 220.767 251.81 221.243C252.021 221.401 259.679 227.369 261.686 229.112C263.693 230.908 269.502 235.238 269.661 235.766C269.819 236.294 276.368 235.133 276.368 235.133L278.428 227.211C278.903 225.732 280.065 220.609 281.015 214.747C281.755 209.941 282.283 204.607 282.125 200.382Z" fill="#392337"/>
<path opacity="0.64" d="M278.586 226.524C278.639 226.418 278.639 226.26 278.692 226.154C278.692 226.154 278.692 226.154 278.692 226.102C278.744 225.943 278.744 225.837 278.797 225.679V225.626C278.85 225.468 278.85 225.362 278.903 225.204C278.903 225.151 278.956 225.098 278.956 225.045C279.009 224.94 279.009 224.781 279.061 224.676C279.061 224.57 279.114 224.464 279.114 224.359C279.114 224.253 279.167 224.147 279.167 224.042C279.22 223.883 279.22 223.725 279.273 223.567C279.273 223.514 279.325 223.408 279.325 223.355C279.642 221.824 280.012 219.975 280.382 217.968C280.382 217.915 280.382 217.863 280.382 217.863C280.434 217.599 280.487 217.335 280.54 217.07C280.593 216.912 280.593 216.754 280.646 216.595C280.646 216.437 280.699 216.331 280.699 216.173C280.751 215.909 280.804 215.592 280.857 215.328C280.91 215.116 280.91 214.958 280.963 214.747C281.702 209.941 282.283 204.607 282.072 200.382C281.966 198.005 281.491 195.628 280.699 193.357C280.699 194.942 280.646 196.526 280.54 197.794C280.223 201.649 277.794 207.247 276.473 209.465C275.153 211.684 273.358 207.511 272.618 204.29C271.879 201.174 264.221 191.773 263.851 191.298C264.01 191.773 267.918 204.184 267.812 208.832C267.707 213.532 260.999 218.074 258.464 216.701C255.929 215.328 241.67 205.61 241.67 205.61L241.828 210.574C242.515 212.053 243.624 213.585 244.891 215.064C246.264 216.648 247.954 218.18 249.75 219.606C249.75 219.606 249.803 219.606 249.803 219.658C250.437 220.186 251.123 220.715 251.81 221.19C252.549 221.771 259.732 227.316 261.633 229.006C263.64 230.802 269.449 235.133 269.608 235.661C269.766 236.189 276.315 235.027 276.315 235.027L278.375 227.105C278.428 226.999 278.428 226.947 278.48 226.841C278.533 226.788 278.586 226.682 278.586 226.524C278.586 226.577 278.586 226.577 278.586 226.524Z" fill="#2D1A2B"/>
<path opacity="0.64" d="M277.002 185.911C276.738 185.752 272.829 182.9 271.879 182.161C270.928 181.422 268.076 180.101 265.33 178.675C262.584 177.249 261.422 175.137 261.422 175.137C262.848 175.348 264.96 176.035 267.918 177.513C271.351 179.309 274.572 182.267 277.002 185.911Z" fill="url(#paint26_linear)"/>
<path d="M240.719 206.402C239.874 223.038 231.16 232.439 231.16 232.439C235.702 226.207 238.079 207.3 238.079 207.3L240.719 206.402Z" fill="url(#paint27_linear)"/>
<path d="M277.53 238.513C277.477 238.671 277.371 238.777 277.16 238.935C276.791 239.199 276.157 239.463 275.417 239.727C273.727 240.255 271.562 240.572 270.717 240.097C269.291 239.305 269.661 235.766 269.661 235.766C269.661 235.766 271.14 234.393 273.252 234.393C275.312 234.393 276.368 235.133 276.368 235.133C276.368 235.133 277.741 237.562 277.53 238.513Z" fill="url(#paint28_linear)"/>
<path opacity="0.56" d="M277.107 238.935C276.738 239.199 276.104 239.463 275.365 239.727L272.671 239.939L270.981 239.569C270.981 239.569 270.136 239.094 270.981 238.354C271.826 237.615 274.731 237.139 274.731 237.139C274.731 237.139 273.833 235.08 274.572 235.027C275.259 234.974 276.632 236.03 276.843 236.611C276.949 236.928 277.055 238.196 277.107 238.935Z" fill="url(#paint29_linear)"/>
<path d="M290.892 266.451C290.469 274.531 277.794 293.966 277.319 294.706C277.477 294.072 280.54 282.295 279.167 275.904C278.481 272.683 276.844 269.936 275.206 266.926C273.516 263.81 271.773 260.483 270.981 256.047C269.397 247.332 270.981 239.622 270.981 239.622C272.777 237.932 276.738 238.513 276.738 238.513C286.825 242.632 291.367 258.212 290.892 266.451Z" fill="#392337"/>
<path opacity="0.64" d="M273.041 240.625C273.041 240.625 278.534 243.53 280.593 253.67C280.593 253.67 276.157 244.375 273.041 240.625Z" fill="#392337"/>
<path opacity="0.64" d="M290.892 266.451C290.469 274.531 277.794 293.966 277.319 294.706C277.477 294.072 280.54 282.295 279.167 275.904C278.481 272.683 276.843 269.936 275.206 266.926C279.378 271.204 281.438 277.383 281.438 277.383C283.498 271.521 282.125 264.497 282.125 264.497C284.713 269.408 283.023 279.812 283.023 279.812C285.505 275.482 287.089 269.514 287.036 266.556C286.984 263.599 281.702 247.068 277.53 242.685C273.516 238.513 271.192 239.516 270.981 239.622C272.777 237.932 276.738 238.513 276.738 238.513C286.825 242.632 291.367 258.212 290.892 266.451Z" fill="#392337"/>
</g>
<defs>
<linearGradient id="paint0_linear" x1="210.936" y1="284.324" x2="209.802" y2="340.186" gradientUnits="userSpaceOnUse">
<stop stop-color="#0C45AD"/>
<stop offset="1" stop-color="#A1C7FF"/>
</linearGradient>
<linearGradient id="paint1_linear" x1="151.768" y1="303.032" x2="151.489" y2="350.555" gradientUnits="userSpaceOnUse">
<stop stop-color="#0C45AD"/>
<stop offset="1" stop-color="#A1C7FF"/>
</linearGradient>
<linearGradient id="paint2_linear" x1="109.538" y1="194.677" x2="111.813" y2="194.677" gradientUnits="userSpaceOnUse">
<stop stop-color="#E2807E"/>
<stop offset="1" stop-color="#B66073"/>
</linearGradient>
<linearGradient id="paint3_linear" x1="71.5014" y1="177.515" x2="69.1385" y2="203.034" gradientUnits="userSpaceOnUse">
<stop stop-color="#421F5A"/>
<stop offset="1" stop-color="#342D7A"/>
</linearGradient>
<linearGradient id="paint4_linear" x1="74.7865" y1="176.581" x2="72.4236" y2="189.908" gradientUnits="userSpaceOnUse">
<stop stop-color="#421F5A"/>
<stop offset="1" stop-color="#342D7A"/>
</linearGradient>
<linearGradient id="paint5_linear" x1="68.5461" y1="171.071" x2="113.589" y2="171.071" gradientUnits="userSpaceOnUse">
<stop stop-color="#B3A9F0"/>
<stop offset="1" stop-color="#DBCFF2"/>
</linearGradient>
<linearGradient id="paint6_linear" x1="97.4654" y1="180.199" x2="127.652" y2="180.199" gradientUnits="userSpaceOnUse">
<stop stop-color="#4B2366"/>
<stop offset="1" stop-color="#393286"/>
</linearGradient>
<linearGradient id="paint7_linear" x1="80.6962" y1="178.012" x2="127.652" y2="178.012" gradientUnits="userSpaceOnUse">
<stop stop-color="#77449B"/>
<stop offset="1" stop-color="#6057BB"/>
</linearGradient>
<linearGradient id="paint8_linear" x1="87.8797" y1="162.744" x2="75.849" y2="173.984" gradientUnits="userSpaceOnUse">
<stop stop-color="#B3A9F0"/>
<stop offset="1" stop-color="#DBCFF2" stop-opacity="0"/>
</linearGradient>
<linearGradient id="paint9_linear" x1="106.135" y1="196.294" x2="88.328" y2="214.685" gradientUnits="userSpaceOnUse">
<stop stop-color="#B3A9F0"/>
<stop offset="1" stop-color="#DBCFF2" stop-opacity="0"/>
</linearGradient>
<linearGradient id="paint10_linear" x1="120.065" y1="270.748" x2="111.559" y2="227.648" gradientUnits="userSpaceOnUse">
<stop stop-color="#77449B"/>
<stop offset="1" stop-color="#6057BB"/>
</linearGradient>
<linearGradient id="paint11_linear" x1="124.6" y1="253.465" x2="117.369" y2="233.191" gradientUnits="userSpaceOnUse">
<stop stop-color="#77449B" stop-opacity="0"/>
<stop offset="1" stop-color="#6057BB"/>
</linearGradient>
<linearGradient id="paint12_linear" x1="118.452" y1="256.481" x2="114.199" y2="232.946" gradientUnits="userSpaceOnUse">
<stop stop-color="#92A1E1" stop-opacity="0"/>
<stop offset="1" stop-color="#6E5CB6"/>
</linearGradient>
<linearGradient id="paint13_linear" x1="85.0343" y1="334.713" x2="78.7963" y2="227.248" gradientUnits="userSpaceOnUse">
<stop stop-color="#77449B"/>
<stop offset="1" stop-color="#6057BB"/>
</linearGradient>
<linearGradient id="paint14_linear" x1="72.4593" y1="217.968" x2="85.1245" y2="236.304" gradientUnits="userSpaceOnUse">
<stop stop-color="#B3A9F0"/>
<stop offset="1" stop-color="#DBCFF2"/>
</linearGradient>
<linearGradient id="paint15_linear" x1="93.8154" y1="237.585" x2="93.8154" y2="222.032" gradientUnits="userSpaceOnUse">
<stop stop-color="#B3A9F0"/>
<stop offset="1" stop-color="#DBCFF2"/>
</linearGradient>
<linearGradient id="paint16_linear" x1="97.238" y1="316.109" x2="102.288" y2="316.109" gradientUnits="userSpaceOnUse">
<stop stop-color="#4B2366"/>
<stop offset="1" stop-color="#393286"/>
</linearGradient>
<linearGradient id="paint17_linear" x1="68.8004" y1="318.346" x2="47.2507" y2="232.525" gradientUnits="userSpaceOnUse">
<stop stop-color="#77449B"/>
<stop offset="1" stop-color="#6057BB"/>
</linearGradient>
<linearGradient id="paint18_linear" x1="49.3252" y1="305.658" x2="101.472" y2="305.658" gradientUnits="userSpaceOnUse">
<stop stop-color="#77449B" stop-opacity="0"/>
<stop offset="1" stop-color="#6057BB"/>
</linearGradient>
<linearGradient id="paint19_linear" x1="97.5826" y1="312.38" x2="134.178" y2="312.38" gradientUnits="userSpaceOnUse">
<stop offset="0.0159875" stop-color="#EEC0A8"/>
<stop offset="1" stop-color="#E59393"/>
</linearGradient>
<linearGradient id="paint20_linear" x1="117.792" y1="303.428" x2="114.945" y2="321.425" gradientUnits="userSpaceOnUse">
<stop stop-color="#FEB3A3"/>
<stop offset="1" stop-color="#B66073"/>
</linearGradient>
<linearGradient id="paint21_linear" x1="122.386" y1="302.65" x2="112.131" y2="311.157" gradientUnits="userSpaceOnUse">
<stop stop-color="#FEB3A3"/>
<stop offset="1" stop-color="#B66073"/>
</linearGradient>
<linearGradient id="paint22_linear" x1="236.535" y1="225.947" x2="238.307" y2="215.526" gradientUnits="userSpaceOnUse">
<stop stop-color="#FEB3A3"/>
<stop offset="1" stop-color="#B66073"/>
</linearGradient>
<linearGradient id="paint23_linear" x1="237.117" y1="221.233" x2="235.681" y2="225.37" gradientUnits="userSpaceOnUse">
<stop stop-color="#B3A9F0"/>
<stop offset="1" stop-color="#DBCFF2" stop-opacity="0"/>
</linearGradient>
<linearGradient id="paint24_linear" x1="240.824" y1="210.39" x2="247.001" y2="214.243" gradientUnits="userSpaceOnUse">
<stop offset="0.0159875" stop-color="#EEC0A8"/>
<stop offset="1" stop-color="#E59393"/>
</linearGradient>
<linearGradient id="paint25_linear" x1="206.702" y1="261.674" x2="255.897" y2="261.674" gradientUnits="userSpaceOnUse">
<stop stop-color="#77449B" stop-opacity="0"/>
<stop offset="1" stop-color="#6057BB"/>
</linearGradient>
<linearGradient id="paint26_linear" x1="261.449" y1="180.531" x2="277.015" y2="180.531" gradientUnits="userSpaceOnUse">
<stop stop-color="#421F5A"/>
<stop offset="1" stop-color="#342D7A" stop-opacity="0"/>
</linearGradient>
<linearGradient id="paint27_linear" x1="219.166" y1="195.13" x2="243.74" y2="230.762" gradientUnits="userSpaceOnUse">
<stop stop-color="#421F5A"/>
<stop offset="1" stop-color="#342D7A"/>
</linearGradient>
<linearGradient id="paint28_linear" x1="269.59" y1="237.337" x2="277.529" y2="237.337" gradientUnits="userSpaceOnUse">
<stop stop-color="#B3A9F0"/>
<stop offset="1" stop-color="#DBCFF2"/>
</linearGradient>
<linearGradient id="paint29_linear" x1="272.677" y1="238.735" x2="277.024" y2="236.301" gradientUnits="userSpaceOnUse">
<stop stop-color="#B3A9F0"/>
<stop offset="1" stop-color="#DBCFF2" stop-opacity="0"/>
</linearGradient>
<clipPath id="clip0">
<rect width="323.691" height="232.8" fill="white" transform="translate(16 120)"/>
</clipPath>
</defs>
</svg>
