<svg width="57" height="58" viewBox="0 0 57 58" fill="none" xmlns="http://www.w3.org/2000/svg">
<g clip-path="url(#clip0)">
<path d="M43.6855 22.19C43.0243 22.5153 44.0161 21.0514 42.6937 21.0514C42.2804 21.0514 42.0325 21.8647 40.958 21.8647C40.7927 21.8647 40.0489 21.702 39.9662 21.702C39.7183 21.702 39.305 21.7833 38.8091 21.8647L38.9744 19.9127C39.8836 20.0754 40.2142 20.3194 40.5448 20.1567C41.2886 19.7501 42.611 19.5061 43.3549 19.6687C44.6773 19.9941 44.9252 21.6207 43.6855 22.19Z" fill="#E6B496"/>
<path d="M21.9481 14.0569C21.9481 14.3009 22.0308 14.4635 22.1134 14.7075C22.1961 14.7889 22.1961 14.9515 22.2787 15.0328C22.3614 15.1142 22.3614 15.2768 22.444 15.3582C23.2705 16.5781 28.5601 20.0754 29.304 20.3194C30.957 20.97 38.2302 21.946 39.5526 22.1087C39.6352 22.1087 39.7179 22.1087 39.8005 22.1087L39.8832 21.6207L40.0485 19.9941L40.1311 19.4247C38.8087 19.2621 31.7008 17.2288 30.8743 16.7408C30.4611 16.4968 25.75 12.9182 25.2541 12.5116C24.6756 12.0236 23.7664 11.3729 22.9399 11.8609C22.1961 12.5116 21.7828 13.2436 21.9481 14.0569Z" fill="#284D84"/>
<path opacity="0.2" d="M22.1141 14.7076C22.1967 14.7889 22.1967 14.9516 22.2794 15.0329C22.362 15.1142 22.362 15.2769 22.4447 15.3582C23.2712 16.5782 28.5608 20.0754 29.3046 20.3194C30.9576 20.9701 38.2308 21.9461 39.5532 22.1087C39.6358 22.1087 39.7185 22.1087 39.8011 22.1087L39.8838 21.6207H39.8011C39.8011 21.6207 39.7185 21.6207 39.6358 21.6207C39.4705 21.6207 39.1399 21.5394 38.7267 21.5394C36.2472 21.2141 30.875 20.3194 29.5526 19.8314C28.8087 19.5874 23.0232 16.0089 22.1141 14.7076Z" fill="black"/>
<path d="M21.8661 10.397C22.1141 9.99033 22.362 9.17702 22.5273 8.44504C22.61 8.20104 22.61 7.95705 22.6926 7.63172C22.8579 6.89974 22.9406 6.33042 22.9406 6.33042C22.9406 6.33042 26.4119 8.36371 25.5027 9.42101C25.4201 9.50235 25.4201 9.58368 25.3374 9.66501C25.1721 9.909 25.0895 10.153 25.0895 10.397C24.8415 11.373 25.0895 12.4303 25.0895 12.4303C25.0895 12.4303 22.5273 11.2916 21.8661 10.397Z" fill="#FFCDAA"/>
<path d="M26.3296 1.69443C26.8255 2.10108 26.9908 2.83307 27.1561 3.40239C27.3214 3.9717 27.4867 4.37836 27.404 4.54102C27.3214 4.70369 27.3214 4.86635 27.2387 4.94768C27.1561 5.02901 27.9826 6.8183 27.8999 6.98097C27.8173 7.14363 27.404 7.14363 27.3214 7.14363C27.1561 7.22496 27.1561 7.38762 27.1561 7.55028C27.1561 7.71295 27.404 7.87561 27.3214 7.95694C27.1561 8.1196 26.9081 8.1196 26.9081 8.1196C26.9081 8.1196 27.3214 8.20094 27.2387 8.44493C27.1561 8.52626 27.0734 8.52626 26.9081 8.60759C26.8255 8.68892 27.0734 9.33957 26.9908 9.50224C26.4949 10.1529 25.0072 9.50224 23.9327 9.01425C23.1889 8.28227 22.445 7.87561 22.2797 7.71295C21.9491 7.46895 20.4615 4.62236 20.9574 3.40239C21.4533 2.18241 22.3624 1.12511 23.4368 1.04378C24.5113 0.962444 25.6684 1.12511 26.3296 1.69443Z" fill="#FFCDAA"/>
<path opacity="0.2" d="M25.4202 9.74622C25.2549 9.99021 25.1722 10.2342 25.1722 10.4782C24.6763 10.2342 22.6927 7.95693 22.7754 7.71294C23.0233 7.95693 23.3539 8.44492 23.8498 8.85158C24.2631 9.25823 24.9243 9.50223 25.4202 9.74622Z" fill="black"/>
<path d="M28.0649 1.77585C27.7343 1.85718 27.4037 2.01985 26.9905 1.77585C26.5772 1.53186 25.6681 0.718543 24.3457 0.55588C23.0233 0.311886 21.7835 0.637212 20.9571 1.85718C20.5438 2.34517 20.2132 3.56514 20.3785 4.62245C20.6265 5.67976 21.205 6.5744 21.5356 7.22505C22.0315 8.03837 22.61 8.68902 22.61 8.93301C23.1059 8.36369 23.1059 6.8184 23.1059 6.41174C22.858 6.24908 22.2794 5.02911 22.858 4.62245C23.4365 4.21579 24.0977 5.02911 24.3457 5.92375C24.5936 5.02911 24.5936 3.9718 25.0895 3.23982C25.4201 2.91449 26.8252 2.99582 27.1558 2.83316C27.817 2.50783 28.0649 2.01985 28.0649 1.77585Z" fill="#0E1B2E"/>
<path d="M26.908 27.3951L20.7919 27.6391C20.7919 27.6391 20.4613 17.066 20.3786 13.8128C20.296 12.2675 22.0316 10.2342 22.1143 9.90889C23.0234 11.4542 24.6764 12.2675 25.007 11.8608C25.255 12.0235 26.7427 13.4875 27.1559 14.3821C27.5692 15.2768 27.3212 18.042 27.1559 19.262C27.1559 20.5633 26.7427 26.5818 26.908 27.3951Z" fill="#284D84"/>
<path opacity="0.2" d="M20.3787 13.7315C20.4613 16.9848 20.7919 27.5579 20.7919 27.5579H21.4531C21.3705 23.8979 20.3787 13.0809 20.3787 13.7315Z" fill="black"/>
<path d="M34.3465 45.3695C34.4291 44.9629 34.5118 44.6375 34.6771 44.2309C34.7597 43.9056 34.8424 43.6616 34.925 43.4989C35.0077 43.3362 35.0903 43.2549 35.173 43.2549C35.2556 43.2549 38.1484 43.1736 38.231 43.2549C38.3963 43.4989 39.3055 44.4749 39.9667 44.8002C40.4626 45.0442 40.7932 45.2069 41.2064 45.2069C41.3717 45.2069 41.537 45.2069 41.785 45.2069C42.0329 45.2069 42.3635 45.2882 42.5288 45.5322C42.6115 45.6949 42.6941 45.9388 42.5288 46.1828C42.5288 46.1828 42.5288 46.2642 42.4462 46.2642C42.2809 46.5082 41.785 46.9962 40.7932 47.2401C40.6279 47.3215 40.2973 47.3215 40.0493 47.2401L38.7269 47.1588C38.5616 47.1588 38.231 47.0775 38.0657 46.9962C37.9004 46.9148 37.7351 46.8335 37.6525 46.7522C37.5698 46.6708 37.4872 46.7522 37.4045 46.7522C37.3219 46.8335 37.2392 46.9962 37.1566 46.9962C37.1566 46.9962 37.1566 46.9962 37.0739 46.9962L35.4209 46.8335C34.8424 46.6708 34.2638 46.5082 34.0985 46.2642C34.0985 46.1015 34.0985 45.8575 34.0985 45.6135C34.2638 45.6135 34.3465 45.5322 34.3465 45.3695Z" fill="#2D2D2D"/>
<path d="M38.5615 29.8352C38.3962 28.7779 37.8176 27.4766 37.1564 27.3139C34.8422 26.6633 29.1394 27.4766 28.3129 27.4766C27.4037 27.4766 26.7425 27.1512 26.7425 27.1512L20.7091 27.5579C19.7999 31.2991 21.8662 33.8204 22.4447 33.9831C25.0069 34.9591 33.4372 32.6004 33.4372 32.6004C34.0157 32.6004 33.7678 33.0884 33.8504 33.6578C34.429 38.7003 34.5116 44.1495 34.5116 44.1495L38.9747 43.4175C39.0574 43.3362 39.3053 34.5524 38.5615 29.8352Z" fill="#41759D"/>
<path opacity="0.2" d="M20.7094 27.5578C20.5441 29.3471 20.9573 30.8111 21.5359 31.787C22.0318 32.763 23.6021 33.4137 24.7592 33.4137L33.9334 32.031C34.5119 32.031 34.264 32.519 34.3466 33.0883C34.9252 37.8869 34.9252 42.6041 35.0078 43.9867L34.6772 44.0681C34.6772 44.0681 34.5946 38.6189 34.016 33.5763C33.9334 33.007 34.1813 32.519 33.6028 32.519C33.6028 32.519 25.1725 34.8776 22.6103 33.9017C21.9491 33.739 19.8002 31.2177 20.7094 27.5578Z" fill="black"/>
<path d="M41.9501 51.0628C41.9501 51.3068 41.9501 51.5507 41.9501 51.7947C42.2807 55.1293 45.1734 57.8133 48.7273 57.8133C52.1986 57.8133 55.0914 55.2107 55.5046 51.7947C55.5046 51.5507 55.5046 51.3068 55.5046 51.0628C55.5046 47.4028 52.4466 44.3936 48.7273 44.3936C47.9008 44.3936 47.157 44.5562 46.4958 44.8002C45.504 45.1256 44.5949 45.6949 43.9337 46.4269C43.7684 46.5895 43.6031 46.7522 43.4378 46.9149C42.9419 47.4842 42.5286 48.2162 42.2807 48.9481C42.0327 49.5988 41.9501 50.3308 41.9501 51.0628Z" fill="#0E1B2E"/>
<path d="M43.7688 51.0628C43.7688 53.7467 46.0003 55.9427 48.7278 55.9427C51.4552 55.9427 53.6868 53.7467 53.6868 51.0628C53.6868 48.3788 51.4552 46.1829 48.7278 46.1829C46.0003 46.1829 43.7688 48.3788 43.7688 51.0628Z" fill="#D3D4D6"/>
<path d="M45.0083 51.0627C45.0083 53.096 46.6613 54.7227 48.7275 54.7227C50.7938 54.7227 52.4468 53.096 52.4468 51.0627C52.4468 49.0295 50.7938 47.4028 48.7275 47.4028C46.6613 47.4028 45.0083 49.0295 45.0083 51.0627Z" fill="#7D7D7D"/>
<path d="M49.3059 25.3619C49.3059 26.8258 49.8018 27.9645 50.463 27.9645C51.1242 27.9645 51.6201 26.8258 51.6201 25.3619C51.6201 23.8979 51.1242 22.7593 50.463 22.7593C49.8018 22.7593 49.3059 23.8979 49.3059 25.3619Z" fill="#FFCDAA"/>
<path d="M50.3809 22.434V28.2085C50.3809 28.2085 47.1575 28.3712 46.579 27.0699C46.0004 25.7686 46.2484 23.4913 47.1575 23.0033C48.0667 22.5153 49.5544 22.3527 50.3809 22.434Z" fill="#0E1B2E"/>
<path d="M20.5436 38.7816H29.3872C30.379 38.7816 31.1228 37.7243 31.1228 36.423C31.1228 35.1217 30.2963 34.0644 29.3872 34.0644H20.461C19.4692 34.0644 18.7253 35.1217 18.7253 36.423C18.7253 37.7243 19.5518 38.7816 20.5436 38.7816Z" fill="#0E1B2E"/>
<path opacity="0.2" d="M30.6269 37.5616C30.6269 36.0163 29.7178 34.715 28.478 34.715H19.3039C19.6345 34.3084 20.0477 34.0644 20.461 34.0644H29.3872C30.379 34.0644 31.1228 35.1217 31.1228 36.423C31.1228 37.155 30.8749 37.8056 30.4616 38.2936C30.5443 38.0496 30.6269 37.8056 30.6269 37.5616Z" fill="black"/>
<path d="M41.041 43.4988C41.041 43.8241 40.8757 44.3121 40.7104 44.8001C40.4624 45.4507 40.2145 46.1827 40.0492 46.508C39.9665 46.6707 39.8839 46.8334 39.8839 46.8334H43.3552C43.3552 46.8334 46.3306 33.007 42.7766 28.9405C42.7766 28.9405 42.1981 29.5098 41.6195 30.2418C40.793 31.1364 39.8839 32.2751 39.8839 32.763C39.8839 33.495 39.8839 41.6282 39.8839 41.6282C39.8839 41.6282 41.041 42.6041 41.041 43.4988Z" fill="#0E1B2E"/>
<path d="M15.5024 46.9149H45.0911V51.0628H15.5024V46.9149Z" fill="#1A72F6"/>
<path d="M5.74961 51.0628C5.74961 54.7227 8.80766 57.7319 12.5269 57.7319C14.8411 57.7319 16.9073 56.5933 18.1471 54.804C18.8909 53.7467 19.3042 52.4454 19.3042 51.0628C19.3042 49.5175 18.7257 48.0535 17.8165 46.9149C16.9074 45.7762 15.5023 44.8816 14.0146 44.5562C13.5187 44.4749 13.0228 44.3936 12.5269 44.3936C9.79945 44.3936 7.48526 45.9389 6.41081 48.1348C5.99756 49.0295 5.74961 50.0054 5.74961 51.0628Z" fill="#0E1B2E"/>
<path d="M7.48533 51.0628C7.48533 53.7467 9.71688 55.9427 12.4443 55.9427C15.1718 55.9427 17.4033 53.7467 17.4033 51.0628C17.4033 48.3788 15.1718 46.1829 12.4443 46.1829C9.71688 46.1829 7.48533 48.3788 7.48533 51.0628Z" fill="#D3D4D6"/>
<path d="M8.80736 51.0627C8.80736 53.096 10.4604 54.7227 12.5266 54.7227C14.5929 54.7227 16.2458 53.096 16.2458 51.0627C16.2458 49.0295 14.5929 47.4028 12.5266 47.4028C10.4604 47.4028 8.80736 49.0295 8.80736 51.0627Z" fill="#7D7D7D"/>
<path d="M45.3384 32.763C45.5037 34.715 45.4211 36.7483 45.2558 38.6189C45.1731 39.5949 45.0078 40.4895 44.7599 41.3842C44.5119 42.2788 44.1813 43.0921 43.8507 43.5801C43.6854 43.8241 43.5201 44.1494 43.4375 44.3934C43.2722 45.1254 43.4375 45.8574 43.8507 46.4267C44.016 46.5894 44.1813 46.752 44.3466 46.9147C44.3466 46.9147 44.3466 46.9147 44.4293 46.9147C44.5946 47.0774 44.8425 47.1587 45.0905 47.24C45.2558 47.3214 45.4211 47.3214 45.5864 47.3214C46.4129 47.4027 47.2394 46.996 47.8179 46.3454C47.8179 46.2641 47.9006 46.2641 47.9006 46.1827V46.1014C48.2312 45.5321 48.4791 44.9628 48.7271 44.3934C48.975 43.8241 49.0577 43.2548 49.223 42.6855C49.223 42.6041 49.3056 42.5228 49.3056 42.3602C49.5536 41.2215 49.7189 40.0829 49.7189 38.9442C49.8842 36.667 49.7189 34.471 49.4709 32.2751C49.223 30.0791 48.7271 27.8832 47.9832 25.7686C47.2394 23.6539 46.2476 21.5393 44.6772 19.6687C44.016 18.9367 42.9416 18.8554 42.1977 19.506L42.1151 19.5874C41.4539 20.238 41.4539 21.214 41.9498 21.8646C43.1069 23.2473 43.7681 25.0366 44.3466 26.9072C44.8425 28.8591 45.1731 30.8111 45.3384 32.763Z" fill="#1A72F6"/>
<path opacity="0.2" d="M22.1966 14.7075C22.1966 14.7888 22.2792 14.8701 22.3619 15.0328C22.4445 15.1141 22.4445 15.2768 22.5272 15.3581C23.3537 16.5781 28.6433 20.0753 29.3871 20.3193C31.0401 20.97 38.3133 21.946 39.6357 22.1086L39.7184 21.702L39.801 21.0513C39.6357 21.0513 39.2225 20.8887 38.8092 20.8073C36.495 20.1567 31.3707 18.3674 30.7095 17.9607C30.2963 17.7167 25.8332 13.8942 25.3373 13.4875C24.7587 12.9995 23.9322 12.2675 23.0231 12.7555C22.4445 13.0808 22.0313 13.5688 21.9486 14.2195C22.0313 14.3008 22.0313 14.4635 22.1966 14.7075Z" fill="black"/>
<path opacity="0.2" d="M47.2399 45.6135C47.4879 44.9628 47.6531 44.3935 47.7358 43.7429C47.7358 43.6615 47.8184 43.4989 47.8184 43.4175C48.0664 42.1162 48.2317 40.8963 48.3143 39.595C48.4796 37.0737 48.3143 34.6337 48.0664 32.1938C47.7358 29.7539 47.2399 27.3139 46.4134 24.9553C45.8349 23.2474 45.091 21.5394 44.0166 19.9128C44.2645 19.9941 44.4298 20.1568 44.6778 20.3194C46.1655 22.0274 47.1573 24.142 47.8184 26.0939C48.4796 28.1272 48.9755 30.1605 49.2235 32.2751C49.4714 34.3897 49.5541 36.423 49.4714 38.619C49.3888 39.6763 49.3061 40.7336 49.0582 41.8722C49.0582 41.9536 49.0582 42.0349 48.9755 42.1976C48.8929 42.6855 48.7276 43.2549 48.4796 43.8242C48.3143 44.3122 48.0664 44.8815 47.7358 45.4508V45.5321C47.7358 45.6135 47.6531 45.6135 47.6531 45.6948C47.4879 45.9388 47.2399 46.1015 46.992 46.2641C47.0746 46.0201 47.1573 45.8575 47.2399 45.6135Z" fill="white"/>
<path opacity="0.2" d="M40.0492 46.5894C40.0492 46.6707 40.0492 46.8333 40.0492 46.9147H43.3552C43.3552 46.9147 46.3306 33.0883 42.7766 29.0218C42.7766 29.0218 42.1981 29.5911 41.6195 30.3231C41.7848 31.3804 41.8675 32.4377 41.9501 33.5763C42.1154 35.6909 42.0328 37.8869 41.8675 40.0015C41.7848 41.0588 41.6195 42.0348 41.3716 43.0108C41.2063 43.6614 40.9583 44.3121 40.7104 44.8814C40.6277 45.1254 40.5451 45.288 40.3798 45.4507C40.1318 45.776 40.0492 46.1827 40.0492 46.5894Z" fill="black"/>
<path d="M39.2227 21.7021C40.3798 23.2474 41.1237 25.1993 41.7022 27.2326C42.1981 29.2659 42.5287 31.3805 42.694 33.5765C42.8593 35.6911 42.7767 37.887 42.6114 39.9203C42.5287 40.9776 42.3634 41.9536 42.1155 42.9296C41.8675 43.9055 41.5369 44.8002 41.2063 45.3695C40.4625 46.5081 40.7931 47.9721 41.9502 48.7041C43.1072 49.4361 44.5949 49.1108 45.3388 47.9721C45.3388 47.8908 45.4214 47.8908 45.4214 47.8095C46.1653 46.4268 46.4959 45.1255 46.7438 43.9055C46.9918 42.6856 47.0744 41.4656 47.1571 40.2456C47.3224 37.8057 47.1571 35.4471 46.9091 33.1698C46.6612 30.8112 46.1653 28.4526 45.5041 26.1753C44.7602 23.898 43.7684 21.5394 42.1981 19.5875C41.6196 18.8555 40.4625 18.6928 39.7186 19.3435C38.8095 19.9128 38.6442 20.9701 39.2227 21.7021Z" fill="#999999"/>
<path d="M3.10448 38.7816V40.1643H11.2868L12.7745 42.6042L13.9316 44.4748L15.4193 46.8334H31.1228C31.1228 46.8334 29.8004 46.1828 29.1392 44.7188C28.3127 42.7669 29.6351 42.1976 30.2137 40.8963C31.1228 38.7003 28.3127 38.7003 28.3127 38.7003H3.10448V38.7816Z" fill="#1A72F6"/>
<path opacity="0.2" d="M28.5605 44.8001C27.734 42.8482 29.0564 42.2789 29.5523 40.9776C30.4615 38.7816 27.6514 38.7816 27.6514 38.7816H28.3952C28.3952 38.7816 31.2053 38.7816 30.2962 40.9776C29.7176 42.2789 28.3952 42.8482 29.2217 44.8001C29.8829 46.1828 31.2053 46.9148 31.2053 46.9148H30.4615C30.5441 46.9148 29.1391 46.2641 28.5605 44.8001Z" fill="black"/>
<path opacity="0.2" d="M6.41089 48.1348L18.1472 54.804C18.891 53.7467 19.3043 52.4454 19.3043 51.0627H20.9573C20.9573 49.5988 20.6267 48.1348 19.8828 46.9148C19.139 45.6135 18.1472 44.4749 16.7421 43.7429C15.5024 43.0109 14.0973 42.6856 12.7749 42.6856L13.932 44.5562C13.4361 44.4749 12.9402 44.3936 12.4443 44.3936C9.79954 44.3936 7.48534 45.9388 6.41089 48.1348Z" fill="black"/>
<path d="M0.790468 35.2845C0.955767 36.9924 1.20372 38.375 1.78227 38.7817C4.50972 38.7817 20.7917 38.7817 20.7917 38.7817L20.3785 35.3658C20.3785 35.3658 20.3785 35.3658 20.3785 35.2845H0.790468Z" fill="#2D81FF"/>
<path d="M0.790758 35.2844H20.2961C20.1308 34.3084 19.3043 26.5819 17.9819 24.874C17.486 24.2233 16.6595 23.3287 15.4198 23.3287C14.2627 23.3287 4.6753 23.3287 3.84881 23.3287C3.02231 23.3287 1.03871 23.5727 0.95606 24.63C0.95606 25.3619 0.460157 31.2991 0.790758 35.2844Z" fill="#1A72F6"/>
<path opacity="0.3" d="M14.9234 26.4192C14.2622 25.5245 13.1051 24.3859 11.5347 24.3859C10.5429 24.3859 5.50128 24.3859 1.45143 24.3859C1.94733 23.7352 3.43503 23.5726 4.01358 23.5726C4.75742 23.5726 13.8489 23.5726 15.006 23.5726C16.1631 23.5726 16.9896 24.3859 17.4029 25.0365C18.56 26.6632 19.3865 34.0643 19.5518 34.959H17.1549C16.659 31.6244 15.9152 27.8018 14.9234 26.4192Z" fill="white"/>
<path d="M5.17096 44.3121L6.2454 45.5321L10.2126 40.8149L10.7085 40.2456H7.31985L6.98925 40.8149L5.17096 44.3121Z" fill="#0E1B2E"/>
<path d="M40.8757 23.2473C40.8757 23.9793 41.4543 24.5486 42.1981 24.5486C42.942 24.5486 43.5205 23.9793 43.5205 23.2473C43.5205 22.5153 42.942 21.946 42.1981 21.946C41.4543 21.946 40.8757 22.5153 40.8757 23.2473Z" fill="#0E1B2E"/>
<path d="M5.74968 47.2401L19.2216 54.8853C21.3705 51.2253 20.1308 46.5081 16.4115 44.3935C12.6923 42.2789 7.89857 43.5802 5.74968 47.2401Z" fill="#1A72F6"/>
<path opacity="0.2" d="M13.8492 44.1496C14.593 44.3122 15.4195 44.5562 16.1634 44.9629C19.4694 46.8335 20.5438 50.9814 18.6429 54.2346L16.5766 53.0147C17.5684 49.8427 16.494 46.2642 13.8492 44.1496Z" fill="white"/>
<path opacity="0.2" d="M39.5533 51.0627H41.9502C41.9502 51.3067 41.9502 51.5507 41.9502 51.7947H55.4221C55.4221 51.5507 55.4221 51.3067 55.4221 51.0627C55.4221 47.4028 52.3641 44.3936 48.6448 44.3936C48.8928 43.8242 48.9754 43.2549 49.1407 42.6856C48.9754 42.6856 48.8101 42.6856 48.6448 42.6856C47.9836 42.6856 47.3224 42.7669 46.7439 42.8483C45.5041 43.0922 44.347 43.5802 43.3552 44.3122C42.3634 44.9629 41.5369 45.8575 40.8757 46.8335C40.7931 46.9148 40.7104 47.0775 40.7104 47.1588C40.0492 48.3788 39.636 49.6801 39.5533 51.0627Z" fill="black"/>
<path d="M40.9584 51.0627H56.4966C56.4966 46.8335 53.0253 43.4176 48.7275 43.4176C44.4297 43.4176 40.9584 46.8335 40.9584 51.0627Z" fill="#1A72F6"/>
<path opacity="0.2" d="M48.8102 43.8242C52.6121 43.8242 55.6702 46.9148 55.6702 50.656H53.1907C52.9427 47.7281 51.2897 45.2068 48.8102 43.8242Z" fill="white"/>
<path d="M41.6196 13.7315C41.6196 13.7315 41.6196 16.8221 41.6196 17.6354C40.4625 18.1234 39.2228 17.0661 38.8922 16.4154C38.7269 16.0088 38.1483 14.7075 38.5616 13.7315C38.7269 13.2435 40.6278 12.4302 41.6196 13.7315Z" fill="#0E1B2E"/>
<path opacity="0.2" d="M6.98925 40.8149H10.2126L10.7085 40.2456H7.31985L6.98925 40.8149Z" fill="black"/>
<path d="M41.6196 16.0901L42.1982 16.5781L42.8594 23.2473H41.4543L41.6196 16.0901Z" fill="#0E1B2E"/>
<path d="M42.9423 24.5486C42.2811 24.7926 43.3556 23.4913 42.0332 23.3286C41.6199 23.2473 41.2893 24.142 40.2149 23.9793C40.0496 23.9793 39.3057 23.7353 39.2231 23.7353C38.9751 23.7353 38.5619 23.7353 38.066 23.7353L38.3139 21.7833C39.2231 22.0273 39.5537 22.2713 39.8843 22.1087C40.7108 21.7833 41.9505 21.6207 42.6944 21.8647C44.0168 22.434 44.1821 24.142 42.9423 24.5486Z" fill="#FFCDAA"/>
<path d="M39.5532 21.5393C38.3135 21.2953 31.3709 18.6113 30.5444 18.1233C30.1311 17.8794 25.8333 13.8941 25.3374 13.4061C24.7589 12.9181 23.9324 12.1048 23.1059 12.5928C21.9488 13.2435 21.6182 14.4634 22.362 15.8461C23.1059 17.1474 27.9822 21.0513 28.8087 21.4579C30.5444 22.2712 38.892 24.1419 39.0573 24.1419L39.5532 21.5393Z" fill="#284D84"/>
<path opacity="0.2" d="M29.0568 21.0514C28.313 20.6447 22.8581 16.5781 22.1143 15.2768C22.1969 15.5208 22.2796 15.6835 22.3622 15.9275C23.1061 17.2288 27.9824 21.1327 28.8089 21.5393C30.5445 22.3527 38.8922 24.2233 39.0575 24.2233L39.1401 23.7353C38.1483 23.654 30.6272 21.7833 29.0568 21.0514Z" fill="black"/>
</g>
<defs>
<clipPath id="clip0">
<rect width="55.954" height="57.2573" fill="white" transform="matrix(-1 0 0 1 56.4966 0.474609)"/>
</clipPath>
</defs>
</svg>
