<svg width="15" height="18" viewBox="0 0 15 18" fill="none" xmlns="http://www.w3.org/2000/svg">
<path d="M14.0625 2.25H12.375V0.5625C12.375 0.252 12.123 0 11.8125 0H1.6875C0.757125 0 0 0.757125 0 1.6875V15.75C0 16.9909 1.00912 18 2.25 18H14.0625C14.373 18 14.625 17.748 14.625 17.4375V2.8125C14.625 2.502 14.373 2.25 14.0625 2.25ZM11.25 14.0625C11.25 14.373 10.998 14.625 10.6875 14.625H3.9375C3.627 14.625 3.375 14.373 3.375 14.0625V12.9375C3.375 11.3861 4.63725 10.125 6.1875 10.125H8.4375C9.98888 10.125 11.25 11.3861 11.25 12.9375V14.0625ZM5.0625 6.75C5.0625 5.50912 6.07162 4.5 7.3125 4.5C8.55338 4.5 9.5625 5.50912 9.5625 6.75C9.5625 7.99088 8.55338 9 7.3125 9C6.07162 9 5.0625 7.99088 5.0625 6.75ZM11.25 2.25H1.6875C1.377 2.25 1.125 1.998 1.125 1.6875C1.125 1.377 1.377 1.125 1.6875 1.125H11.25V2.25Z" fill="#284D84"/>
</svg>
