<svg width="130" height="48" viewBox="0 0 130 48" fill="none" xmlns="http://www.w3.org/2000/svg">
<rect width="130" height="48" rx="8" fill="#ECEEF7"/>
<path d="M59.3459 28C62.0049 28 63.5049 26.3466 63.5049 23.6193C63.5049 20.9091 62.0049 19.2727 59.4652 19.2727H56.6527V28H59.3459ZM57.7095 27.0625V20.2102H59.397C61.4424 20.2102 62.4822 21.5057 62.4822 23.6193C62.4822 25.75 61.4424 27.0625 59.2777 27.0625H57.7095ZM67.8004 28.1364C69.5731 28.1364 70.7663 26.7898 70.7663 24.7614C70.7663 22.7159 69.5731 21.3693 67.8004 21.3693C66.0277 21.3693 64.8345 22.7159 64.8345 24.7614C64.8345 26.7898 66.0277 28.1364 67.8004 28.1364ZM67.8004 27.233C66.4538 27.233 65.8402 26.0739 65.8402 24.7614C65.8402 23.4489 66.4538 22.2727 67.8004 22.2727C69.147 22.2727 69.7606 23.4489 69.7606 24.7614C69.7606 26.0739 69.147 27.233 67.8004 27.233ZM74.9606 28.1364C76.4094 28.1364 77.364 27.25 77.5344 26.0909H76.5287C76.3412 26.8068 75.7446 27.233 74.9606 27.233C73.7674 27.233 73.0003 26.2443 73.0003 24.7273C73.0003 23.2443 73.7844 22.2727 74.9606 22.2727C75.8469 22.2727 76.3753 22.8182 76.5287 23.4148H77.5344C77.364 22.1875 76.3242 21.3693 74.9435 21.3693C73.1708 21.3693 71.9946 22.767 71.9946 24.7614C71.9946 26.7216 73.1196 28.1364 74.9606 28.1364ZM83.1296 25.3239C83.1296 26.5511 82.1921 27.1136 81.4421 27.1136C80.6069 27.1136 80.0103 26.5 80.0103 25.5455V21.4545H79.0046V25.6136C79.0046 27.2841 79.891 28.0852 81.1182 28.0852C82.1069 28.0852 82.7546 27.5568 83.0614 26.892H83.1296V28H84.1353V21.4545H83.1296V25.3239ZM85.9772 28H86.9829V23.9091C86.9829 22.9503 87.6818 22.2727 88.4659 22.2727C89.2287 22.2727 89.7613 22.7713 89.7613 23.517V28H90.7841V23.7386C90.7841 22.8949 91.3125 22.2727 92.2329 22.2727C92.9488 22.2727 93.5625 22.652 93.5625 23.6193V28H94.5682V23.6193C94.5682 22.081 93.7415 21.3693 92.5738 21.3693C91.6363 21.3693 90.9503 21.7997 90.6136 22.4773H90.5454C90.2216 21.7784 89.6505 21.3693 88.7897 21.3693C87.9375 21.3693 87.3068 21.7784 87.0341 22.4773H86.9488V21.4545H85.9772V28ZM99.1513 28.1364C100.481 28.1364 101.452 27.4716 101.759 26.483L100.788 26.2102C100.532 26.892 99.9396 27.233 99.1513 27.233C97.9709 27.233 97.1569 26.4702 97.1101 25.0682H101.861V24.642C101.861 22.2045 100.413 21.3693 99.049 21.3693C97.2763 21.3693 96.1001 22.767 96.1001 24.7784C96.1001 26.7898 97.2592 28.1364 99.1513 28.1364ZM97.1101 24.1989C97.1782 23.1804 97.8984 22.2727 99.049 22.2727C100.14 22.2727 100.839 23.0909 100.839 24.1989H97.1101ZM104.397 24.0625C104.397 22.9205 105.104 22.2727 106.067 22.2727C107.001 22.2727 107.567 22.8821 107.567 23.9091V28H108.573V23.8409C108.573 22.1705 107.683 21.3693 106.357 21.3693C105.369 21.3693 104.755 21.8125 104.448 22.4773H104.363V21.4545H103.391V28H104.397V24.0625ZM113.257 21.4545H111.86V19.8864H110.854V21.4545H109.865V22.3068H110.854V26.3977C110.854 27.5398 111.774 28.0852 112.627 28.0852C113.002 28.0852 113.24 28.017 113.377 27.9659L113.172 27.0625C113.087 27.0795 112.951 27.1136 112.729 27.1136C112.286 27.1136 111.86 26.9773 111.86 26.125V22.3068H113.257V21.4545Z" fill="#727597"/>
<rect x="16" y="12" width="17.2636" height="20.4001" fill="#284D84"/>
<rect x="22.7365" y="15.5999" width="17.2636" height="20.4001" fill="#1A72F6"/>
<path d="M25.9999 20H33.9999M25.9999 23.5H33.9999M25.9999 27H30.4137" stroke="#6EA8FF" stroke-linecap="round"/>
</svg>
