<svg width="121" height="48" viewBox="0 0 121 48" fill="none" xmlns="http://www.w3.org/2000/svg">
<rect width="121" height="48" rx="8" fill="#ECEEF7"/>
<path d="M56.6528 28H57.7096V24.8125H59.6187C61.6513 24.8125 62.5675 23.5767 62.5675 22.0341C62.5675 20.4915 61.6513 19.2727 59.6016 19.2727H56.6528V28ZM57.7096 23.875V20.2102H59.5675C60.9866 20.2102 61.5278 20.9858 61.5278 22.0341C61.5278 23.0824 60.9866 23.875 59.5846 23.875H57.7096ZM66.0597 28.1534C67.2018 28.1534 67.7984 27.5398 68.0029 27.1136H68.054V28H69.0597V23.6875C69.0597 21.608 67.4745 21.3693 66.6393 21.3693C65.6506 21.3693 64.5256 21.7102 64.0143 22.9034L64.9688 23.2443C65.1904 22.767 65.7146 22.2557 66.6734 22.2557C67.5981 22.2557 68.054 22.7457 68.054 23.5852V23.6193C68.054 24.1051 67.5597 24.0625 66.3665 24.2159C65.1521 24.3736 63.8268 24.642 63.8268 26.142C63.8268 27.4205 64.8154 28.1534 66.0597 28.1534ZM66.2131 27.25C65.412 27.25 64.8325 26.892 64.8325 26.1932C64.8325 25.4261 65.5313 25.1875 66.3154 25.0852C66.7415 25.0341 67.8836 24.9148 68.054 24.7102V25.6307C68.054 26.4489 67.4063 27.25 66.2131 27.25ZM73.5544 28.1364C75.0033 28.1364 75.9578 27.25 76.1283 26.0909H75.1226C74.9351 26.8068 74.3385 27.233 73.5544 27.233C72.3612 27.233 71.5942 26.2443 71.5942 24.7273C71.5942 23.2443 72.3783 22.2727 73.5544 22.2727C74.4408 22.2727 74.9692 22.8182 75.1226 23.4148H76.1283C75.9578 22.1875 74.918 21.3693 73.5374 21.3693C71.7646 21.3693 70.5885 22.767 70.5885 24.7614C70.5885 26.7216 71.7135 28.1364 73.5544 28.1364ZM77.5984 28H78.6041V25.5497L79.3072 24.8977L81.7575 28H83.0359L80.0658 24.25L82.8314 21.4545H81.5871L78.7234 24.3693H78.6041V19.2727H77.5984V28ZM86.0519 28.1534C87.194 28.1534 87.7905 27.5398 87.9951 27.1136H88.0462V28H89.0519V23.6875C89.0519 21.608 87.4667 21.3693 86.6315 21.3693C85.6428 21.3693 84.5178 21.7102 84.0065 22.9034L84.961 23.2443C85.1826 22.767 85.7067 22.2557 86.6655 22.2557C87.5903 22.2557 88.0462 22.7457 88.0462 23.5852V23.6193C88.0462 24.1051 87.5519 24.0625 86.3587 24.2159C85.1442 24.3736 83.819 24.642 83.819 26.142C83.819 27.4205 84.8076 28.1534 86.0519 28.1534ZM86.2053 27.25C85.4042 27.25 84.8246 26.892 84.8246 26.1932C84.8246 25.4261 85.5235 25.1875 86.3076 25.0852C86.7337 25.0341 87.8758 24.9148 88.0462 24.7102V25.6307C88.0462 26.4489 87.3985 27.25 86.2053 27.25ZM93.5295 30.5909C95.0977 30.5909 96.3591 29.875 96.3591 28.1875V21.4545H95.3875V22.4943H95.2852C95.0636 22.1534 94.6545 21.3693 93.3761 21.3693C91.7227 21.3693 90.5807 22.6818 90.5807 24.6932C90.5807 26.7386 91.7739 27.8977 93.3591 27.8977C94.6375 27.8977 95.0466 27.1477 95.2682 26.7898H95.3534V28.1193C95.3534 29.2102 94.5864 29.7045 93.5295 29.7045C92.3406 29.7045 91.923 29.0781 91.6545 28.7159L90.8534 29.2784C91.2625 29.9645 92.0679 30.5909 93.5295 30.5909ZM93.4955 26.9943C92.2341 26.9943 91.5864 26.0398 91.5864 24.6761C91.5864 23.3466 92.217 22.2727 93.4955 22.2727C94.7227 22.2727 95.3705 23.2614 95.3705 24.6761C95.3705 26.125 94.7057 26.9943 93.4955 26.9943ZM100.944 28.1364C102.274 28.1364 103.245 27.4716 103.552 26.483L102.581 26.2102C102.325 26.892 101.733 27.233 100.944 27.233C99.7639 27.233 98.95 26.4702 98.9031 25.0682H103.655V24.642C103.655 22.2045 102.206 21.3693 100.842 21.3693C99.0693 21.3693 97.8932 22.767 97.8932 24.7784C97.8932 26.7898 99.0523 28.1364 100.944 28.1364ZM98.9031 24.1989C98.9713 23.1804 99.6915 22.2727 100.842 22.2727C101.933 22.2727 102.632 23.0909 102.632 24.1989H98.9031Z" fill="#727597"/>
<rect x="16" y="12" width="24" height="9.04013" fill="#284D84"/>
<rect x="17.3333" y="20.9331" width="21.3333" height="15.0669" fill="#1A72F6"/>
<rect x="24" y="24" width="8" height="2" rx="1" fill="#284D84"/>
</svg>
