<svg width="18" height="18" viewBox="0 0 18 18" fill="none" xmlns="http://www.w3.org/2000/svg">
<path fill-rule="evenodd" clip-rule="evenodd" d="M9 18C13.9706 18 18 13.9706 18 9C18 4.02944 13.9706 0 9 0C4.02944 0 0 4.02944 0 9C0 13.9706 4.02944 18 9 18Z" fill="#D5DBE0"/>
<path fill-rule="evenodd" clip-rule="evenodd" d="M8.58426 10.7542L9.84426 10.3876C9.71826 10.2845 9.62662 10.0898 9.62662 9.90655C9.62662 8.94436 11.5395 8.81836 11.5395 7.146C11.5395 6.08073 10.6346 5.33618 9.15698 5.33618C8.17189 5.33618 7.25553 5.72564 6.64844 6.44727L7.57626 7.48964C7.93135 7.05436 8.41244 6.77945 8.98516 6.77945C9.61516 6.77945 9.89007 7.07727 9.89007 7.43236C9.89007 8.22273 8.20626 8.38309 8.20626 9.73473C8.20626 10.1356 8.34371 10.4907 8.58426 10.7542ZM9.13407 13.2169C9.63807 13.2169 10.0619 12.7931 10.0619 12.2891C10.0619 11.7851 9.63807 11.3613 9.13407 11.3613C8.63007 11.3613 8.20626 11.7851 8.20626 12.2891C8.20626 12.7931 8.63007 13.2169 9.13407 13.2169Z" fill="white"/>
</svg>
